<?xml version="1.0" encoding="UTF-8"?>
<!DOCTYPE svg PUBLIC "-//W3C//DTD SVG 1.1//EN" "http://www.w3.org/Graphics/SVG/1.1/DTD/svg11.dtd">
<!-- Creator: CorelDRAW 2020 (64-Bit) -->
<svg xmlns="http://www.w3.org/2000/svg" xml:space="preserve" width="416.448mm" height="128.693mm" version="1.1" style="shape-rendering:geometricPrecision; text-rendering:geometricPrecision; image-rendering:optimizeQuality; fill-rule:evenodd; clip-rule:evenodd"
viewBox="0 0 41064.19 12689.89"
 xmlns:xlink="http://www.w3.org/1999/xlink"
 xmlns:xodm="http://www.corel.com/coreldraw/odm/2003">
 <defs>
  <style type="text/css">
   <![CDATA[
    .fil1 {fill:#FEFEFE}
    .fil0 {fill:#FEFEFE;fill-rule:nonzero}
   ]]>
  </style>
 </defs>
 <g id="Слой_x0020_1">
  <metadata id="CorelCorpID_0Corel-Layer"/>
  <path class="fil0" d="M1388.52 7289.44l360.67 -1703.9 -980.37 1703.9 -477.19 0 480.51 -2254c-146.91,62.41 -260.69,154.64 -342.43,276.71 -81.19,122.06 -122.06,271.74 -122.06,449.58 0,87.82 13.25,155.21 40.32,202.7 4.42,8.28 6.63,16.01 6.63,22.65 -178.95,0 -289.97,-56.9 -331.95,-170.11 -14.91,-40.87 -22.64,-91.68 -22.64,-151.89 0,-111.56 35.35,-218.17 105.49,-320.89 141.4,-209.88 354.59,-366.18 640.69,-467.26 136.97,-48.6 275.6,-72.9 415.89,-72.9 45.29,0 89.47,2.21 132.56,6.63l-373.91 1763.54 993.61 -1763.54 477.2 0 -525.81 2478.79 -477.2 0zm1726 -1686.22c265.66,0 398.22,100.52 398.22,301.01 0,83.95 -17.13,145.81 -51.93,185.58 -34.24,39.22 -72.9,59.09 -116.53,59.09 -43.08,0 -84.51,-13.25 -124.27,-39.22 27.07,-71.24 40.32,-136.42 40.32,-195.52 0,-90.58 -31.48,-135.87 -94.44,-135.87 -63.52,0 -129.79,56.89 -199.94,171.22 -100.52,161.82 -169.56,362.87 -207.12,603.67 -11.04,72.36 -16.01,151.34 -16.01,238.05 0,159.61 75.67,239.15 228.1,239.15 127.03,0 234.19,-28.17 320.9,-85.06 86.71,-56.33 178.95,-139.73 276.16,-249.64l113.22 0c-247.98,408.71 -551.76,613.06 -911.31,613.06 -157.41,0 -282.79,-40.86 -376.68,-122.05 -93.89,-81.74 -140.84,-215.96 -140.84,-403.74 0,-253.52 64.06,-498.2 192.75,-734.58 96.66,-177.85 230.32,-305.98 399.32,-383.31 87.27,-41.42 177.29,-61.86 270.09,-61.86zm2501.98 1705.54c-282.78,0 -424.17,-124.26 -424.17,-373.91 0,-90.58 24.85,-234.73 74.56,-433.57 49.72,-198.28 74.57,-335.25 74.57,-410.92 0,-113.23 -39.77,-170.11 -119.86,-170.11 -79.53,0 -150.78,63.51 -213.74,189.44 -18.23,35.9 -33.14,74.57 -45.29,116.54l-224.8 1063.21 -477.19 0 242.46 -1143.85c6.63,-25.95 9.94,-53.57 9.94,-82.85 0,-97.21 -32.58,-145.26 -97.76,-145.26 -65.17,0 -120.96,30.38 -166.8,91.13 -45.84,60.75 -80.63,133.66 -104.38,217.61l-224.79 1063.21 -477.2 0 350.72 -1656.95 477.75 0 -35.9 171.22c109.92,-124.82 244.68,-187.23 404.85,-187.23 194.97,0 308.19,95 339.68,284.45 121.51,-187.79 275.6,-281.13 461.18,-281.13 104.39,0 191.66,28.72 261.8,87.27 70.15,57.99 105.5,143.6 105.5,255.72 0,112.12 -18.23,241.36 -55.24,388.28l-77.32 323.65c-17.68,70.15 -25.96,127.03 -25.96,171.22 0,95 40.32,142.5 120.96,142.5 74.57,0 132,-23.74 171.77,-71.24 39.77,-47.51 78.98,-121.51 118.19,-221.48l139.19 0c-82.3,243.57 -185.59,414.79 -310.95,512.54 -86.16,67.39 -176.74,100.52 -271.75,100.52zm2305.92 -1278.05c-133.66,140.29 -329.73,231.97 -587.11,275.05 -25.96,302.12 -112.68,543.48 -260.69,724.63 -148.02,181.16 -324.76,271.74 -530.78,271.74 -254.62,0 -418.66,-93.89 -492.11,-281.13 -25.41,-66.28 -38.66,-138.63 -38.66,-218.72 0,-79.54 6.63,-160.73 20.43,-243.58 13.26,-82.29 34.8,-167.34 63.52,-254.61 66.27,-197.73 161.27,-357.9 286.65,-480.52 149.13,-146.92 328.08,-220.37 537.4,-220.37 283.34,0 425.29,176.74 425.29,529.12l0 3.31c11.04,2.21 29.28,3.31 55.23,3.31 59.1,0 135.32,-18.77 228.67,-56.89 93.34,-37.56 181.16,-85.06 262.89,-141.95l29.28 90.59zm-862.16 284.44c-59.66,-14.91 -89.47,-64.07 -89.47,-146.91 0,-83.4 34.79,-140.3 103.83,-171.77 -4.42,-70.15 -15.46,-119.86 -33.14,-148.58 -17.67,-29.27 -52.47,-44.19 -104.38,-44.19 -101.62,0 -198.29,112.12 -291.07,335.81 -92.79,224.24 -139.18,423.08 -139.18,596.5 0,106.6 9.39,174.53 28.72,203.26 19.33,28.17 40.32,46.39 61.86,54.12 21.55,7.73 50.26,11.05 87.27,11.05 75.67,0 150.24,-66.28 224.79,-198.84 74.57,-132.56 124.83,-296.04 150.79,-490.46zm1017.92 25.96c0,90.58 32.58,135.87 97.76,135.87 65.17,0 121.51,-27.62 169.01,-82.3 46.39,-55.24 78.98,-124.83 97.21,-208.78l116.54 -553.42 477.19 0 -238.04 1126.18c-9.39,37.56 -14.36,76.77 -14.36,116.54 0,75.66 45.29,113.22 135.87,113.22 124.27,0 213.75,-97.76 268.42,-292.72l139.18 0c-81.74,238.04 -193.86,408.16 -336.36,509.78 -97.21,69.04 -201.04,103.28 -312.61,103.28 -111.01,0 -201.04,-31.47 -270.08,-93.89 -67.93,-62.41 -101.62,-163.48 -101.62,-302.67 0,-57.99 8.84,-130.34 27.07,-216.5l16.57 -82.85c-112.12,124.26 -245.23,186.13 -398.22,186.13 -99.41,0 -183.37,-30.93 -252.41,-93.89 -67.93,-62.42 -102.18,-164.04 -102.18,-303.77 0,-57.44 9.39,-129.24 27.61,-215.4l114.89 -553.42 477.75 0 -129.79 616.38c-6.63,34.8 -9.39,65.18 -9.39,92.25zm1922.05 616.37c0,-75.11 25.41,-230.31 75.67,-463.94l-367.29 0 -169.56 795.89 -477.2 0 350.72 -1656.95 477.75 0 -142.5 663.34 370.6 0 150.23 -663.34 443.52 0 -175.08 821.85 -58 255.72c-14.91,63.51 -22.64,109.91 -22.64,139.18 0,92.79 44.19,139.18 132.56,139.18 66.83,0 120.4,-25.95 160.17,-77.88 39.77,-50.26 79.54,-122.05 118.2,-214.84l139.18 0c-139.18,408.71 -344.65,613.06 -616.38,613.06 -127.59,0 -224.24,-33.13 -289.96,-100.52 -66.83,-67.93 -99.98,-151.33 -99.98,-250.75zm2679.29 -261.79c-140.29,408.71 -361.76,613.06 -664.99,613.06 -197.17,0 -306.54,-104.38 -328.62,-313.71 -129.24,209.33 -292.73,313.71 -489.91,313.71 -99.41,0 -183.37,-31.47 -252.4,-93.89 -67.94,-62.41 -102.19,-163.48 -102.19,-302.67 0,-62.41 8.84,-134.76 25.96,-216.5l224.79 -1063.22 477.75 0 -238.04 1126.18c-6.64,34.8 -9.95,65.72 -9.95,93.89 0,90.58 33.14,135.87 98.87,135.87 116.53,0 204.9,-97.76 265.11,-292.72l225.34 -1063.22 477.19 0 -238.04 1126.18c-9.39,37.56 -14.36,76.77 -14.36,116.54 0,75.66 45.29,113.22 135.87,113.22 124.27,0 213.75,-97.76 268.42,-292.72l139.18 0zm695.92 -79.54c0,-98.86 -40.32,-148.58 -119.86,-148.58 -34.8,0 -66.83,9.95 -97.21,29.83 -29.83,19.89 -70.7,50.81 -121.51,92.79l-145.26 699.23 -477.2 0 354.03 -1656.95 477.2 0 -141.94 656.7 203.8 -209.87 158.52 -173.43c103.28,-111.02 186.68,-189.45 249.1,-234.74 62.41,-45.29 133.66,-67.93 213.74,-67.93 79.54,0 138.09,20.98 175.64,62.41 37.01,41.42 55.79,94.44 55.79,159.62 0,64.62 -18.23,115.98 -53.58,154.09 -35.34,38.66 -78.97,57.45 -129.23,57.45 -81.19,0 -135.88,-17.13 -164.59,-51.37 -28.72,-34.79 -42.53,-74 -42.53,-118.19 -62.97,37.56 -118.75,83.4 -168.46,137.53l-123.17 135.87c-30.92,34.25 -64.62,69.6 -99.97,104.94 49.15,-8.28 95.55,-12.7 139.18,-12.7 214.3,0 322,97.21 322,291.07 0,66.83 -8.84,126.48 -25.4,177.85 -16.58,51.92 -24.86,103.28 -24.86,154.09 0,88.37 46.39,132.56 139.18,132.56 58,0 102.19,-11.04 132.56,-33.69 -16.01,175.64 -90.58,286.1 -223.13,331.39 -42.53,14.91 -88.37,22.64 -137.53,22.64 -108.25,0 -195.52,-32.58 -262.9,-98.86 -67.93,-65.72 -101.62,-155.2 -101.62,-268.42 0,-43.08 6.63,-101.62 19.88,-174.53 12.71,-73.45 19.34,-123.72 19.34,-150.78z"/>
  <path class="fil0" d="M6380.85 9730.68c0,-163.75 -71.72,-245.04 -215.75,-245.04 -45.42,0 -88.45,3.58 -129.09,11.95l-274.92 1297.5 -516.96 0 276.71 -1304.67c-14.94,-2.99 -29.29,-4.78 -43.62,-4.78 -22.12,0 -43.63,0 -64.55,0 -90.25,0 -165.55,30.48 -225.92,92.63 -60.96,61.56 -101.6,131.49 -122.52,207.99 -30.48,111.16 -57.38,244.43 -80.69,399.23l-26.29 178.7c-29.29,189.45 -72.92,318.55 -130.3,387.88 -57.97,69.33 -148.21,104.59 -270.73,104.59 -122.52,0 -243.24,-20.91 -362.18,-61.56 160.77,-85.46 265.36,-291.66 313.17,-619.77 24.5,-170.33 49.61,-293.45 75.31,-369.35 52.6,-154.2 122.52,-270.14 210.38,-348.43 102.2,-102.8 263.56,-154.19 482.9,-154.19l10.76 0c4.78,-75.91 7.17,-157.79 7.17,-245.05 0,-87.85 -5.37,-176.31 -16.13,-266.55 -16.14,-145.83 -69.33,-258.18 -158.98,-337.68 -50.2,95.63 -124.31,143.44 -222.92,143.44 -98.01,0 -162.56,-43.63 -194.24,-131.48 -8.96,-26.3 -13.75,-60.37 -13.75,-101.01 0,-81.87 33.47,-145.83 100.41,-191.25 67.54,-45.42 145.83,-68.13 236.67,-68.13 90.24,0 164.95,21.51 222.92,63.95 58.57,42.43 105.78,98.01 142.24,167.34 80.09,153 120.73,363.96 120.73,633.51 0,114.75 -8.96,230.1 -26.3,346.64 24.5,0 48.41,2.39 71.72,7.17l236.07 -1099.68 537.88 -111.76 -257.59 1211.44c28.09,-4.78 55.58,-7.17 82.48,-7.17 54.98,-255.2 139.84,-490.67 255.79,-705.24 115.35,-215.15 241.45,-359.18 377.72,-432.69 93.82,-49.01 170.92,-73.51 231.29,-73.51 100.4,0 176.31,20.91 227.7,62.15 51.4,41.24 77.1,93.23 77.1,154.79 0,101.6 -23.31,172.72 -69.33,213.96 -46.02,40.64 -100.4,60.96 -163.75,60.96 -102.8,0 -173.32,-47.81 -211.57,-143.44 -161.37,93.24 -297.63,285.68 -409.99,576.14l-103.39 273.13 50.8 0c236.07,0 377.12,77.09 423.73,231.29 14.35,46.61 21.52,102.2 21.52,167.94 0,87.26 -29.29,236.67 -87.85,448.24l-61.56 218.74c-18.53,69.93 -27.49,133.29 -27.49,188.86 0,56.19 12.54,105.78 37.65,148.22 25.11,42.43 59.17,72.32 102.2,88.45 -149.41,40.65 -267.74,61.56 -355.6,61.56 -185.27,0 -278.5,-80.09 -278.5,-240.25 0,-78.29 22.11,-191.26 65.14,-338.88 43.03,-147.61 74.11,-259.97 93.83,-337.67 19.13,-77.7 29.29,-147.62 30.48,-209.18zm2724.1 421.94c-151.8,442.27 -391.45,663.39 -719.57,663.39 -213.36,0 -331.7,-112.95 -355.6,-339.46 -139.85,226.51 -316.76,339.46 -530.12,339.46 -107.58,0 -198.41,-34.06 -273.13,-101.59 -73.51,-67.54 -110.57,-176.91 -110.57,-327.52 0,-67.54 9.56,-145.83 28.09,-234.28l243.24 -1150.48 516.97 0 -257.59 1218.61c-7.17,37.66 -10.76,71.12 -10.76,101.6 0,98.01 35.86,147.02 106.99,147.02 126.1,0 221.72,-105.78 286.87,-316.75l243.84 -1150.48 516.37 0 -257.59 1218.61c-10.17,40.65 -15.54,83.08 -15.54,126.11 0,81.88 49.01,122.52 147.02,122.52 134.47,0 231.29,-105.78 290.46,-316.75l150.6 0zm-103.39 1190.53c0,-226.52 187.67,-402.22 562.4,-527.14 -7.18,-253.4 -93.24,-380.11 -257.6,-380.11l-112.35 0 47.21 -215.16 103.4 0c128.49,0 234.28,-59.76 317.35,-178.69 82.47,-118.93 124.31,-255.79 124.31,-409.39 0,-224.12 -81.28,-336.48 -243.84,-336.48 -87.27,0 -163.76,38.85 -228.9,116.54 -65.74,77.7 -115.95,163.16 -150.61,256.39l-173.32 0c78.89,-213.36 166.74,-372.94 262.37,-478.12 134.47,-147.02 295.84,-220.53 484.1,-220.53 188.86,0 334.09,49.6 436.88,148.82 102.8,99.21 154.2,246.83 154.2,442.86 0,196.63 -74.7,375.92 -224.12,539.68 -75.9,83.67 -144.03,142.24 -204.99,175.11 -60.37,32.27 -102.8,51.39 -126.11,56.18 57.38,19.72 114.75,60.37 171.52,122.52 57.38,61.56 98.01,140.45 122.52,236.07 135.67,-41.83 242.05,-100.4 319.75,-175.71 77.69,-75.31 144.63,-196.63 200.21,-363.37l150.61 0c-92.04,312.57 -251.61,519.36 -479.31,619.77 -62.16,26.89 -120.73,47.81 -176.91,62.75 -4.78,267.74 -68.14,476.93 -191.25,628.73 -122.53,151.8 -284.49,227.7 -486.49,227.7 -111.17,0 -205.59,-28.68 -283.89,-86.05 -77.7,-56.78 -117.14,-144.63 -117.14,-262.37zm551.64 -353.82c-236.67,83.08 -355.61,184.68 -355.61,304.81 0,32.87 10.17,60.36 31.08,83.07 20.32,22.72 46.62,34.07 79.49,34.07 59.17,0 111.17,-41.24 155.99,-123.11 44.22,-82.48 74.1,-181.69 89.05,-298.83zm1911.89 -553.42c0,-81.28 27.49,-249.22 81.87,-502.02l-397.43 0 -183.49 861.21 -516.37 0 379.5 -1792.96 516.97 0 -154.19 717.78 401.02 0 162.56 -717.78 479.92 0 -189.46 889.31 -62.75 276.72c-16.14,68.73 -24.5,118.93 -24.5,150.61 0,100.4 47.81,150.6 143.43,150.6 72.32,0 130.29,-28.08 173.32,-84.27 43.03,-54.38 86.06,-132.08 127.9,-232.48l150.61 0c-150.61,442.27 -372.94,663.39 -666.98,663.39 -138.06,0 -242.65,-35.85 -313.77,-108.77 -72.32,-73.51 -108.17,-163.75 -108.17,-271.33zm1430.18 -124.31c0,105.19 35.86,157.78 106.99,157.78 126.1,0 221.72,-105.78 286.87,-316.75l243.84 -1150.48 516.37 0 -257.59 1218.61c-10.17,40.65 -15.54,83.08 -15.54,126.11 0,81.88 49.01,122.52 147.02,122.52 25.7,0 65.15,-7.77 118.94,-22.71 -7.77,129.7 -52,223.52 -132.08,282.09 -80.09,57.97 -169.74,87.26 -268.95,87.26 -99.21,0 -178.69,-29.29 -239.66,-88.45 -60.96,-58.57 -96.82,-142.84 -108.77,-251.01 -139.85,226.51 -317.95,339.46 -533.7,339.46 -107.58,0 -198.41,-34.06 -273.13,-101.59 -73.51,-67.54 -110.57,-176.91 -110.57,-327.52 0,-67.54 9.56,-145.83 28.09,-234.28l243.24 -1150.48 516.97 0 -257.59 1218.61c-7.17,30.49 -10.76,60.97 -10.76,90.85z"/>
  <g id="_2171671075760">
   <path class="fil0" d="M3350.69 4600.5c4.97,8.55 7.96,15.31 8.95,20.28 1,5.18 -0.2,9.15 -3.79,11.94 -3.37,2.98 -9.14,4.97 -17.1,5.97 -7.96,1 -18.5,1.39 -31.83,1.39 -12.33,0 -22.08,-0.2 -29.04,-0.8 -6.96,-0.59 -12.52,-1.78 -16.7,-3.38 -3.97,-1.39 -7.16,-3.37 -9.35,-5.36 -1.99,-2.19 -3.97,-4.97 -5.37,-8.55l-167.87 -300.15 -169.66 300.15c-1.78,3.58 -3.97,6.36 -6.36,8.75 -2.39,2.39 -5.57,4.18 -9.55,5.57 -4.18,1.39 -9.75,2.39 -16.71,2.98 -6.96,0.6 -16.31,0.8 -27.85,0.8 -12.93,0 -23.07,-0.39 -30.43,-1.39 -7.36,-1 -12.53,-2.99 -15.31,-5.97 -2.99,-2.79 -3.98,-6.76 -2.99,-11.94 1,-4.97 3.98,-11.73 8.95,-20.28l205.86 -346.88 -196.51 -335.34c-4.58,-8.56 -7.55,-15.32 -8.95,-20.69 -1.39,-5.18 -0.59,-9.35 2.59,-12.14 3.18,-2.98 8.55,-4.77 16.31,-5.56 7.75,-0.8 18.49,-1.2 32.02,-1.2 11.73,0 21.28,0.21 28.64,0.8 7.36,0.6 13.12,1.6 17.5,2.99 4.17,1.39 7.36,3.38 9.35,5.77 1.78,2.58 3.97,5.36 6.36,8.55l161.9 282.04 160.91 -282.04c1.99,-3.18 3.78,-5.97 5.77,-8.55 1.99,-2.39 4.77,-4.38 8.55,-5.77 3.58,-1.39 8.76,-2.39 15.31,-2.99 6.57,-0.59 15.52,-0.8 26.85,-0.8 12.14,0 21.88,0.4 29.44,1.4 7.55,1 12.93,2.78 16.31,5.56 3.38,2.79 4.58,6.76 3.78,11.94 -0.8,5.36 -3.58,12.13 -8.15,20.69l-195.71 332.95 203.87 349.26zm610.61 -249.41c0,45.94 -4.97,87.12 -14.91,123.71 -9.75,36.4 -24.27,67.43 -43.56,92.89 -19.09,25.46 -42.96,45.15 -71.2,58.87 -28.24,13.73 -60.66,20.69 -97.06,20.69 -15.52,0 -29.84,-1.59 -42.96,-4.58 -13.33,-3.18 -26.06,-7.96 -38.79,-14.71 -12.53,-6.57 -25.06,-14.92 -37.39,-25.07 -12.53,-9.94 -25.66,-21.88 -39.58,-35.4l0 262.74c0,3.18 -0.8,5.77 -2.39,8.15 -1.59,2.39 -3.97,4.37 -7.55,5.97 -3.59,1.39 -8.36,2.58 -14.72,3.38 -6.16,0.79 -14.12,1.19 -23.87,1.19 -9.55,0 -17.31,-0.4 -23.47,-1.19 -6.36,-0.8 -11.34,-1.99 -14.92,-3.38 -3.78,-1.6 -6.36,-3.58 -7.75,-5.97 -1.4,-2.39 -1.99,-4.98 -1.99,-8.15l0 -732.95c0,-3.58 0.59,-6.36 1.78,-8.55 1.2,-1.99 3.59,-3.97 6.96,-5.37 3.59,-1.59 7.96,-2.78 13.53,-3.37 5.37,-0.6 12.14,-0.8 19.89,-0.8 8.15,0 14.92,0.2 20.29,0.8 5.17,0.59 9.55,1.78 13.12,3.18 3.58,1.6 5.97,3.58 7.36,5.57 1.39,2.19 1.99,4.97 1.99,8.55l0 70.22c15.91,-16.31 31.23,-30.43 45.94,-42.57 14.72,-11.93 29.64,-21.88 44.56,-29.83 14.92,-7.96 30.23,-14.13 45.94,-18.1 15.72,-4.18 32.22,-6.16 49.73,-6.16 37.99,0 70.21,7.36 97.06,22.08 26.65,14.91 48.53,35.01 65.44,60.66 16.9,25.66 29.24,55.5 37,89.5 7.75,34.01 11.53,70.01 11.53,108zm-100.24 11.13c0,-26.85 -1.98,-52.9 -6.16,-77.97 -3.97,-25.06 -11.14,-47.34 -20.88,-66.83 -9.95,-19.49 -23.27,-35.01 -39.97,-46.74 -16.71,-11.74 -37.6,-17.51 -62.46,-17.51 -12.53,0 -24.66,1.79 -36.8,5.57 -11.93,3.79 -24.27,9.55 -36.79,17.5 -12.34,7.96 -25.46,18.5 -38.99,31.62 -13.52,13.13 -28.04,29.25 -43.16,48.34l0 208.64c26.46,32.42 51.51,57.09 75.19,74.39 23.86,17.11 48.73,25.66 74.78,25.66 24.07,0 44.75,-5.77 62.05,-17.5 17.31,-11.73 31.23,-27.24 41.97,-46.74 10.75,-19.49 18.5,-41.17 23.68,-65.43 4.97,-24.07 7.55,-48.53 7.55,-73zm711.66 260.36c0,2.78 -0.8,5.37 -2.39,7.56 -1.59,2.39 -3.97,4.17 -7.55,5.56 -3.38,1.4 -8.36,2.39 -14.52,3.18 -6.16,0.8 -13.92,1.19 -23.27,1.19 -9.35,0 -17.11,-0.39 -23.27,-1.19 -6.16,-0.8 -11.34,-1.78 -15.12,-3.18 -3.97,-1.39 -6.57,-3.18 -8.15,-5.56 -1.59,-2.4 -2.39,-4.78 -2.39,-7.56l0 -301.93c0,-15.31 0.39,-30.63 1.19,-46.54 0.8,-15.71 1.79,-31.02 2.99,-46.33 -8.95,15.71 -18.9,30.82 -29.44,45.94 -10.74,14.92 -21.48,29.84 -32.21,44.55l-222.17 304.32c-2.79,3.18 -5.18,5.77 -7.37,8.15 -2.19,2.39 -4.97,4.18 -8.15,5.57 -3.38,1.39 -7.55,2.39 -12.73,2.98 -4.97,0.6 -11.33,0.8 -18.7,0.8 -8.55,0 -15.71,-0.39 -21.08,-1.19 -5.57,-0.8 -9.94,-1.78 -13.12,-3.18 -3.38,-1.39 -5.77,-3.18 -7.16,-5.56 -1.4,-2.4 -1.99,-4.78 -1.99,-7.56l0 -525.88c0,-2.78 0.59,-5.18 1.99,-7.56 1.39,-2.39 3.97,-4.37 7.75,-5.77 3.58,-1.59 8.56,-2.78 14.92,-3.37 6.16,-0.6 13.73,-0.8 22.88,-0.8 18.7,0 31.62,1.39 38.58,4.38 6.96,2.98 10.54,7.36 10.54,13.12l0 303.72c0,15.12 -0.39,30.23 -1.19,45.15 -0.8,15.12 -1.79,29.83 -2.99,44.75 8.95,-14.92 18.1,-29.24 27.25,-43.55 8.95,-14.12 18.89,-28.04 29.24,-41.57l225.16 -308.49c2.18,-3.18 4.58,-5.77 7.16,-7.96 2.58,-2.19 5.57,-3.97 9.35,-5.17 3.58,-1.4 7.96,-2.19 13.12,-2.79 4.97,-0.59 11.54,-1 19.69,-1 8.15,0 15.12,0.4 20.69,1 5.77,0.6 10.15,1.6 13.52,3.18 3.18,1.59 5.57,3.38 6.96,5.77 1.4,2.39 1.99,4.97 1.99,8.15l0 524.69zm555.53 -81.35c0,6.57 -0.2,12.34 -0.59,17.11 -0.4,4.97 -1,8.94 -1.99,12.33 -1,3.38 -2.19,6.17 -3.58,8.76 -1.39,2.58 -4.38,6.36 -9.35,11.13 -4.77,4.98 -13.12,10.95 -24.66,18.3 -11.73,7.16 -24.87,13.73 -39.38,19.3 -14.72,5.77 -30.43,10.34 -47.54,13.73 -17.11,3.58 -34.81,5.36 -53.11,5.36 -37.79,0 -71.2,-6.16 -100.24,-18.7 -29.24,-12.33 -53.7,-30.43 -73.2,-54.3 -19.69,-23.86 -34.61,-53.3 -44.95,-87.91 -10.33,-34.81 -15.51,-74.78 -15.51,-120.34 0,-51.51 6.37,-95.86 18.89,-133.06 12.73,-37 30.04,-67.43 51.92,-91.09 22.08,-23.68 47.93,-41.18 77.57,-52.71 29.83,-11.33 62.05,-17.1 96.66,-17.1 16.7,0 32.82,1.59 48.53,4.77 15.91,2.98 30.23,7.16 43.55,12.13 13.12,5.18 25.07,10.95 35.2,17.7 10.34,6.57 17.91,12.34 22.48,16.91 4.77,4.77 7.95,8.55 9.74,11.14 1.59,2.78 3.18,5.97 4.38,9.74 1,3.58 1.78,7.76 2.19,12.53 0.39,4.58 0.59,10.54 0.59,17.5 0,15.12 -1.78,25.66 -5.17,31.82 -3.58,5.97 -7.76,8.95 -12.93,8.95 -5.77,0 -12.53,-3.18 -20.1,-9.75 -7.55,-6.36 -17.1,-13.52 -28.84,-21.28 -11.73,-7.76 -25.85,-14.92 -42.36,-21.28 -16.51,-6.57 -36,-9.75 -58.47,-9.75 -46.34,0 -81.95,17.71 -106.61,53.31 -24.66,35.41 -37,86.92 -37,154.35 0,33.61 3.18,63.25 9.55,88.71 6.56,25.26 15.91,46.54 28.44,63.65 12.34,16.91 27.65,29.63 45.74,37.99 18.1,8.35 38.79,12.52 62.06,12.52 22.28,0 41.77,-3.58 58.47,-10.54 16.7,-6.96 31.03,-14.71 43.36,-23.27 12.34,-8.35 22.68,-15.91 31.03,-22.67 8.35,-6.96 14.72,-10.34 19.49,-10.34 2.58,0 4.97,0.8 6.96,2.39 1.98,1.59 3.58,4.18 4.97,7.76 1.39,3.78 2.39,8.35 2.98,14.12 0.6,5.57 0.8,12.33 0.8,20.09zm493.87 -414.9c0,7.76 -0.39,14.33 -1.19,19.69 -0.8,5.57 -1.99,9.95 -3.78,13.33 -1.79,3.58 -3.79,6.16 -5.97,7.96 -2.4,1.78 -5.37,2.58 -8.76,2.58l-156.93 0 0 452.1c0,3.18 -0.8,5.76 -2.39,7.95 -1.59,1.99 -3.97,3.98 -7.55,5.57 -3.59,1.39 -8.36,2.58 -14.72,3.38 -6.16,0.8 -14.12,1.19 -23.87,1.19 -9.55,0 -17.31,-0.39 -23.47,-1.19 -6.36,-0.8 -11.34,-1.99 -14.92,-3.38 -3.78,-1.59 -6.36,-3.58 -7.75,-5.57 -1.4,-2.19 -1.99,-4.77 -1.99,-7.95l0 -452.1 -156.93 0c-2.99,0 -5.77,-0.8 -8.35,-2.58 -2.58,-1.79 -4.58,-4.38 -6.16,-7.96 -1.4,-3.38 -2.79,-7.96 -3.79,-13.53 -1,-5.57 -1.39,-12.33 -1.39,-20.09 0,-6.96 0.39,-13.12 1.39,-18.5 1,-5.57 2.39,-10.15 4.18,-13.73 1.78,-3.78 3.78,-6.36 6.16,-8.15 2.19,-1.78 4.97,-2.58 7.96,-2.58l410.53 0c2.99,0 5.77,0.8 8.35,2.58 2.58,1.79 4.58,4.38 6.16,8.15 1.4,3.58 2.79,8.35 3.79,13.92 1,5.57 1.39,11.93 1.39,18.89zm562.28 496.25c0,2.78 -0.8,5.37 -2.39,7.56 -1.59,2.39 -3.97,4.17 -7.55,5.56 -3.38,1.4 -8.36,2.39 -14.52,3.18 -6.16,0.8 -13.92,1.19 -23.27,1.19 -9.35,0 -17.11,-0.39 -23.27,-1.19 -6.16,-0.8 -11.34,-1.78 -15.12,-3.18 -3.97,-1.39 -6.57,-3.18 -8.15,-5.56 -1.59,-2.4 -2.39,-4.78 -2.39,-7.56l0 -301.93c0,-15.31 0.39,-30.63 1.19,-46.54 0.8,-15.71 1.79,-31.02 2.99,-46.33 -8.95,15.71 -18.9,30.82 -29.44,45.94 -10.74,14.92 -21.48,29.84 -32.21,44.55l-222.17 304.32c-2.79,3.18 -5.18,5.77 -7.37,8.15 -2.19,2.39 -4.97,4.18 -8.15,5.57 -3.38,1.39 -7.55,2.39 -12.73,2.98 -4.97,0.6 -11.33,0.8 -18.7,0.8 -8.55,0 -15.71,-0.39 -21.08,-1.19 -5.57,-0.8 -9.94,-1.78 -13.12,-3.18 -3.38,-1.39 -5.77,-3.18 -7.16,-5.56 -1.4,-2.4 -1.99,-4.78 -1.99,-7.56l0 -525.88c0,-2.78 0.59,-5.18 1.99,-7.56 1.39,-2.39 3.97,-4.37 7.75,-5.77 3.58,-1.59 8.56,-2.78 14.92,-3.37 6.16,-0.6 13.73,-0.8 22.88,-0.8 18.7,0 31.62,1.39 38.58,4.38 6.96,2.98 10.54,7.36 10.54,13.12l0 303.72c0,15.12 -0.39,30.23 -1.19,45.15 -0.8,15.12 -1.79,29.83 -2.99,44.75 8.95,-14.92 18.1,-29.24 27.25,-43.55 8.95,-14.12 18.89,-28.04 29.24,-41.57l225.16 -308.49c2.18,-3.18 4.58,-5.77 7.16,-7.96 2.58,-2.19 5.57,-3.97 9.35,-5.17 3.58,-1.4 7.96,-2.19 13.12,-2.79 4.97,-0.59 11.54,-1 19.69,-1 8.15,0 15.12,0.4 20.69,1 5.77,0.6 10.15,1.6 13.52,3.18 3.18,1.59 5.57,3.38 6.96,5.77 1.4,2.39 1.99,4.97 1.99,8.15l0 524.69zm573.43 0c0,4.58 -1.6,8.15 -4.58,10.54 -3.18,2.39 -7.37,3.98 -12.93,5.18 -5.37,1.19 -13.33,1.78 -23.87,1.78 -9.95,0 -18.1,-0.59 -24.07,-1.78 -5.97,-1.19 -10.34,-2.79 -13.12,-5.18 -2.78,-2.39 -4.18,-5.77 -4.18,-10.54l0 -52.51c-22.87,24.46 -48.33,43.55 -76.57,57.08 -28.25,13.32 -58.08,20.09 -89.5,20.09 -27.65,0 -52.71,-3.58 -74.99,-10.74 -22.28,-7.16 -41.37,-17.7 -57.08,-31.23 -15.71,-13.52 -28.04,-30.43 -36.8,-50.12 -8.75,-19.89 -13.12,-42.36 -13.12,-67.62 0,-29.64 5.97,-55.3 18.1,-76.97 11.93,-21.88 29.24,-39.98 51.91,-54.3 22.48,-14.32 50.12,-25.26 82.74,-32.42 32.63,-7.16 69.42,-10.74 110.19,-10.74l72.4 0 0 -40.97c0,-20.1 -2.18,-37.99 -6.36,-53.7 -4.38,-15.52 -11.14,-28.45 -20.69,-38.79 -9.55,-10.34 -21.88,-18.09 -37,-23.27 -15.12,-5.36 -33.81,-7.96 -55.89,-7.96 -23.67,0 -44.94,2.79 -63.64,8.56 -18.9,5.77 -35.41,11.93 -49.53,18.89 -14.12,6.96 -26.05,13.12 -35.61,18.89 -9.35,5.77 -16.51,8.56 -21.08,8.56 -3.18,0 -5.97,-0.8 -8.15,-2.39 -2.39,-1.4 -4.37,-3.79 -6.16,-6.96 -1.79,-2.99 -2.99,-6.96 -3.78,-11.74 -0.8,-4.97 -1.19,-10.14 -1.19,-16.1 0,-9.55 0.59,-17.31 1.98,-22.88 1.4,-5.57 4.78,-10.94 9.95,-15.91 5.17,-4.97 14.32,-10.94 27.05,-17.9 12.73,-6.76 27.65,-13.12 44.35,-18.89 16.52,-5.57 34.81,-10.34 54.7,-14.13 19.69,-3.78 39.79,-5.56 59.87,-5.56 37.59,0 69.62,4.17 96.06,12.73 26.46,8.55 47.74,21.28 64.05,37.79 16.31,16.51 28.04,37 35.4,61.46 7.36,24.46 11.14,53.11 11.14,85.73l0 354.03zm-95.48 -240.27l-82.14 0c-26.26,0 -49.13,2.19 -68.62,6.76 -19.3,4.38 -35.41,11.14 -48.34,19.89 -12.73,8.76 -22.08,19.1 -28.24,31.43 -5.97,12.34 -8.95,26.46 -8.95,42.37 0,27.24 8.56,48.93 25.86,65.04 17.3,16.11 41.37,24.27 72.59,24.27 25.07,0 48.53,-6.37 70.01,-19.3 21.49,-12.73 44.16,-32.42 67.82,-58.88l0 -111.58zm731.55 239.68c0,3.18 -0.8,5.76 -2.39,7.95 -1.59,1.99 -3.98,3.98 -7.56,5.57 -3.58,1.39 -8.35,2.58 -14.71,3.38 -6.17,0.8 -13.92,1.19 -23.27,1.19 -9.95,0 -17.91,-0.39 -24.07,-1.19 -6.36,-0.8 -11.14,-1.99 -14.72,-3.38 -3.58,-1.59 -5.97,-3.58 -7.55,-5.57 -1.59,-2.19 -2.39,-4.77 -2.39,-7.95l0 -230.13 -266.13 0 0 230.13c0,3.18 -0.8,5.76 -2.39,7.95 -1.59,1.99 -3.97,3.98 -7.55,5.57 -3.59,1.39 -8.36,2.58 -14.72,3.38 -6.16,0.8 -14.12,1.19 -23.87,1.19 -9.55,0 -17.31,-0.39 -23.47,-1.19 -6.36,-0.8 -11.34,-1.99 -14.92,-3.38 -3.78,-1.59 -6.36,-3.58 -7.75,-5.57 -1.4,-2.19 -1.99,-4.77 -1.99,-7.95l0 -524.7c0,-3.18 0.59,-5.77 1.99,-7.95 1.39,-1.99 3.97,-3.98 7.75,-5.77 3.58,-1.79 8.56,-2.99 14.92,-3.58 6.16,-0.6 13.92,-0.8 23.47,-0.8 9.75,0 17.71,0.2 23.87,0.8 6.36,0.59 11.13,1.78 14.72,3.58 3.58,1.78 5.97,3.78 7.55,5.77 1.59,2.18 2.39,4.77 2.39,7.95l0 213.42 266.13 0 0 -213.42c0,-3.18 0.8,-5.77 2.39,-7.95 1.59,-1.99 3.97,-3.98 7.55,-5.77 3.58,-1.79 8.36,-2.99 14.72,-3.58 6.16,-0.6 14.12,-0.8 24.07,-0.8 9.35,0 17.1,0.2 23.27,0.8 6.36,0.59 11.13,1.78 14.71,3.58 3.58,1.78 5.98,3.78 7.56,5.77 1.59,2.18 2.39,4.77 2.39,7.95l0 524.7zm555.72 -80.76c0,6.57 -0.2,12.34 -0.59,17.11 -0.4,4.97 -1,8.94 -1.99,12.33 -1,3.38 -2.19,6.17 -3.58,8.76 -1.39,2.58 -4.38,6.36 -9.35,11.13 -4.77,4.98 -13.12,10.95 -24.66,18.3 -11.73,7.16 -24.87,13.73 -39.38,19.3 -14.72,5.77 -30.43,10.34 -47.54,13.73 -17.11,3.58 -34.81,5.36 -53.11,5.36 -37.79,0 -71.2,-6.16 -100.24,-18.7 -29.24,-12.33 -53.7,-30.43 -73.2,-54.3 -19.69,-23.86 -34.61,-53.3 -44.95,-87.91 -10.33,-34.81 -15.51,-74.78 -15.51,-120.34 0,-51.51 6.37,-95.86 18.89,-133.06 12.73,-37 30.04,-67.43 51.92,-91.09 22.08,-23.68 47.93,-41.18 77.57,-52.71 29.83,-11.33 62.05,-17.1 96.66,-17.1 16.7,0 32.82,1.59 48.53,4.77 15.91,2.98 30.23,7.16 43.55,12.13 13.12,5.18 25.07,10.95 35.2,17.7 10.34,6.57 17.91,12.34 22.48,16.91 4.77,4.77 7.95,8.55 9.74,11.14 1.59,2.78 3.18,5.97 4.38,9.74 1,3.58 1.78,7.76 2.19,12.53 0.39,4.58 0.59,10.54 0.59,17.5 0,15.12 -1.78,25.66 -5.17,31.82 -3.58,5.97 -7.76,8.95 -12.93,8.95 -5.77,0 -12.53,-3.18 -20.1,-9.75 -7.55,-6.36 -17.1,-13.52 -28.84,-21.28 -11.73,-7.76 -25.85,-14.92 -42.36,-21.28 -16.51,-6.57 -36,-9.75 -58.47,-9.75 -46.34,0 -81.95,17.71 -106.61,53.31 -24.66,35.41 -37,86.92 -37,154.35 0,33.61 3.18,63.25 9.55,88.71 6.56,25.26 15.91,46.54 28.44,63.65 12.34,16.91 27.65,29.63 45.74,37.99 18.1,8.35 38.79,12.52 62.06,12.52 22.28,0 41.77,-3.58 58.47,-10.54 16.7,-6.96 31.03,-14.71 43.36,-23.27 12.34,-8.35 22.68,-15.91 31.03,-22.67 8.35,-6.96 14.72,-10.34 19.49,-10.34 2.58,0 4.97,0.8 6.96,2.39 1.98,1.59 3.58,4.18 4.97,7.76 1.39,3.78 2.39,8.35 2.98,14.12 0.6,5.57 0.8,12.33 0.8,20.09zm554.73 84.93c0,2.19 -0.59,4.38 -1.98,5.97 -1.4,1.79 -3.98,3.38 -7.56,4.38 -3.78,1.19 -8.55,2.19 -14.72,2.78 -5.97,0.6 -13.72,0.8 -23.06,0.8 -10.75,0 -19.69,-0.39 -26.46,-1.19 -6.76,-0.8 -12.34,-1.78 -16.71,-3.18 -4.17,-1.39 -7.36,-3.18 -9.14,-5.17 -1.99,-2.19 -3.38,-4.58 -4.18,-7.36l-55.69 -135.85c-6.96,-17.5 -14.32,-32.42 -22.28,-45.15 -7.96,-12.53 -17.11,-22.88 -27.65,-30.63 -10.34,-7.76 -22.08,-13.33 -35.4,-16.91 -13.13,-3.38 -28.04,-5.17 -45.15,-5.17l-40.58 0 0 236.09c0,1.98 -1,3.78 -2.99,5.77 -1.98,1.98 -4.77,3.58 -8.75,4.57 -3.97,1.2 -8.95,2.19 -15.31,2.99 -6.17,0.8 -13.33,1.19 -21.49,1.19 -8.35,0 -15.51,-0.39 -21.67,-1.19 -6.37,-0.8 -11.34,-1.78 -15.31,-2.99 -3.98,-0.99 -6.76,-2.58 -8.56,-4.57 -1.78,-1.99 -2.58,-3.98 -2.58,-5.77l0 -533.05c0,-1.78 0.8,-3.78 2.58,-5.36 1.79,-1.79 4.58,-3.38 8.56,-4.38 3.97,-1.19 8.94,-2.19 15.31,-2.78 6.16,-0.6 13.32,-0.8 21.67,-0.8 8.15,0 15.31,0.2 21.49,0.8 6.36,0.59 11.34,1.59 15.31,2.78 3.97,1 6.76,2.58 8.75,4.38 1.99,1.59 2.99,3.58 2.99,5.56l0 220.38 40.58 0c14.51,0 28.04,-1.59 40.17,-4.97 12.14,-3.38 23.27,-8.76 33.22,-16.31 10.15,-7.76 19.09,-17.5 26.85,-29.64 7.96,-12.13 15.31,-26.65 21.88,-43.75l48.53 -121.14c0.79,-3.18 2.19,-5.77 3.97,-8.15 1.99,-2.39 4.97,-4.37 8.76,-5.77 3.97,-1.59 9.14,-2.78 15.51,-3.37 6.36,-0.6 14.92,-0.8 25.46,-0.8 9.15,0 16.9,0.2 22.87,0.8 5.98,0.59 10.75,1.59 14.13,2.78 3.18,1 5.36,2.58 6.56,4.38 1.19,1.59 1.79,3.58 1.79,5.36 0,3.58 -0.4,7.37 -1.39,11.14 -1,3.97 -2.39,8.35 -4.38,13.53l-50.12 115.56c-7.76,19.49 -16.11,35.8 -25.26,49.13 -9.15,13.12 -18.3,24.27 -27.65,33.01 -9.15,8.76 -18.7,15.52 -28.44,20.49 -9.55,4.77 -18.89,8.55 -27.85,11.34l0 1.19c13.53,4.58 26.05,10.15 37.59,16.7 11.54,6.76 22.08,14.92 32.03,24.46 9.94,9.75 19.09,21.29 27.65,34.81 8.55,13.33 16.51,28.64 24.06,46.15l57.68 132.86c1.59,2.58 2.58,5.18 3.38,7.56 0.79,2.18 1.39,4.58 1.78,6.56 0.4,2.19 0.8,3.98 1,5.37 0.2,1.39 0.2,2.58 0.2,3.78zm503.82 -3.58c0,4.58 -1.6,8.15 -4.58,10.54 -3.18,2.39 -7.37,3.98 -12.93,5.18 -5.37,1.19 -13.33,1.78 -23.87,1.78 -9.95,0 -18.1,-0.59 -24.07,-1.78 -5.97,-1.19 -10.34,-2.79 -13.12,-5.18 -2.78,-2.39 -4.18,-5.77 -4.18,-10.54l0 -52.51c-22.87,24.46 -48.33,43.55 -76.57,57.08 -28.25,13.32 -58.08,20.09 -89.5,20.09 -27.65,0 -52.71,-3.58 -74.99,-10.74 -22.28,-7.16 -41.37,-17.7 -57.08,-31.23 -15.71,-13.52 -28.04,-30.43 -36.8,-50.12 -8.75,-19.89 -13.12,-42.36 -13.12,-67.62 0,-29.64 5.97,-55.3 18.1,-76.97 11.93,-21.88 29.24,-39.98 51.91,-54.3 22.48,-14.32 50.12,-25.26 82.74,-32.42 32.63,-7.16 69.42,-10.74 110.19,-10.74l72.4 0 0 -40.97c0,-20.1 -2.18,-37.99 -6.36,-53.7 -4.38,-15.52 -11.14,-28.45 -20.69,-38.79 -9.55,-10.34 -21.88,-18.09 -37,-23.27 -15.12,-5.36 -33.81,-7.96 -55.89,-7.96 -23.67,0 -44.94,2.79 -63.64,8.56 -18.9,5.77 -35.41,11.93 -49.53,18.89 -14.12,6.96 -26.05,13.12 -35.61,18.89 -9.35,5.77 -16.51,8.56 -21.08,8.56 -3.18,0 -5.97,-0.8 -8.15,-2.39 -2.39,-1.4 -4.37,-3.79 -6.16,-6.96 -1.79,-2.99 -2.99,-6.96 -3.78,-11.74 -0.8,-4.97 -1.19,-10.14 -1.19,-16.1 0,-9.55 0.59,-17.31 1.98,-22.88 1.4,-5.57 4.78,-10.94 9.95,-15.91 5.17,-4.97 14.32,-10.94 27.05,-17.9 12.73,-6.76 27.65,-13.12 44.35,-18.89 16.52,-5.57 34.81,-10.34 54.7,-14.13 19.69,-3.78 39.79,-5.56 59.87,-5.56 37.59,0 69.62,4.17 96.06,12.73 26.46,8.55 47.74,21.28 64.05,37.79 16.31,16.51 28.04,37 35.4,61.46 7.36,24.46 11.14,53.11 11.14,85.73l0 354.03zm-95.48 -240.27l-82.14 0c-26.26,0 -49.13,2.19 -68.62,6.76 -19.3,4.38 -35.41,11.14 -48.34,19.89 -12.73,8.76 -22.08,19.1 -28.24,31.43 -5.97,12.34 -8.95,26.46 -8.95,42.37 0,27.24 8.56,48.93 25.86,65.04 17.3,16.11 41.37,24.27 72.59,24.27 25.07,0 48.53,-6.37 70.01,-19.3 21.49,-12.73 44.16,-32.42 67.82,-58.88l0 -111.58zm658.75 239.68c0,3.18 -0.59,5.76 -1.98,8.15 -1.4,2.39 -3.79,4.17 -7.37,5.56 -3.58,1.4 -8.35,2.39 -14.71,3.18 -6.17,0.8 -14.33,1.19 -24.46,1.19 -9.55,0 -17.31,-0.39 -23.48,-1.19 -6.36,-0.8 -11.33,-1.78 -14.91,-3.18 -3.79,-1.39 -6.37,-3.18 -7.76,-5.56 -1.39,-2.19 -1.99,-4.98 -1.99,-8.15l0 -220.58 -55.29 0c-24.07,0 -42.77,1.99 -56.29,5.77 -13.32,3.97 -25.46,10.34 -36,19.49 -10.74,9.14 -20.28,20.88 -28.83,35.01 -8.56,14.12 -16.71,31.43 -24.46,52.1l-42.57 102.44c-1.99,4.97 -3.97,9.14 -6.37,12.13 -2.39,3.18 -5.76,5.57 -10.14,7.36 -4.38,1.79 -10.15,2.99 -16.91,3.58 -6.76,0.6 -15.12,0.8 -25.25,0.8 -7.17,0 -13.73,-0.2 -19.3,-0.59 -5.57,-0.4 -10.34,-1 -14.32,-1.99 -3.79,-1 -6.76,-2.58 -8.56,-4.77 -1.98,-1.99 -2.98,-4.77 -2.98,-7.76 0,-2.78 1,-7.16 3.18,-13.12 2.19,-5.97 6.57,-16.51 13.13,-31.62l41.97 -98.46c10.94,-24.86 24.27,-46.34 40.17,-64.24 15.91,-18.1 34.22,-31.43 54.9,-39.98 -37.8,-6.96 -67.63,-22.08 -90.11,-45.14 -22.28,-23.27 -33.42,-53.91 -33.42,-92.1 0,-25.25 5.18,-48.13 15.72,-68.62 10.54,-20.48 25.85,-37.79 46.34,-51.91 20.28,-14.33 45.35,-25.26 75.18,-32.82 29.64,-7.56 63.65,-11.34 102.23,-11.34 9.15,0 20.1,0.2 32.22,0.59 12.34,0.4 24.86,1 37.79,1.79 13.13,0.8 25.66,1.59 37.99,2.58 12.14,1 22.68,1.79 31.62,2.58 11.73,1.19 20.49,5.37 26.26,12.93 5.77,7.37 8.75,16.52 8.75,27.25l0 498.64zm-96.66 -468.81c-13.92,-1.98 -28.24,-3.37 -42.96,-3.97 -14.51,-0.59 -28.04,-0.8 -40.58,-0.8 -26.25,0 -48.13,2.19 -65.63,6.76 -17.7,4.38 -31.62,10.95 -42.36,19.3 -10.54,8.35 -18.1,18.29 -22.48,29.63 -4.58,11.14 -6.76,23.68 -6.76,37.39 0,13.92 2.59,26.65 7.76,37.8 5.37,11.13 13.12,20.48 23.87,28.04 10.54,7.55 24.27,13.53 40.77,17.5 16.7,4.18 39.78,6.16 69.62,6.16l78.76 0 0 -177.82z"/>
   <path class="fil0" d="M10667.14 4819.48c0,3.18 -0.59,5.57 -1.99,7.56 -1.39,1.99 -3.58,3.58 -6.75,4.77 -2.99,1 -7.37,1.99 -12.73,2.78 -5.37,0.8 -12.73,1.19 -22.08,1.19 -7.76,0 -14.33,-0.39 -19.69,-1.19 -5.37,-0.79 -9.95,-1.78 -13.33,-2.78 -3.58,-1.19 -5.97,-2.78 -7.36,-4.77 -1.39,-1.99 -1.99,-4.38 -1.99,-7.56l0 -182.98 -514.54 0c-10.95,0 -19.49,-3.38 -26.06,-10.15 -6.36,-6.76 -9.55,-17.1 -9.55,-30.63l0 -698.93c0,-2.78 0.8,-5.37 2.39,-7.55 1.6,-2.4 4.18,-4.38 8.15,-5.98 3.78,-1.39 9.15,-2.58 15.72,-3.37 6.56,-0.8 14.51,-1.2 23.86,-1.2 9.75,0 17.7,0.4 24.27,1.2 6.37,0.79 11.54,1.98 15.31,3.37 3.98,1.6 6.57,3.58 8.15,5.98 1.6,2.39 2.39,4.77 2.39,7.55l0 653.78 337.73 0 0 -653.78c0,-2.78 0.79,-5.17 2.39,-7.55 1.59,-2.4 4.38,-4.38 8.35,-5.98 4.18,-1.39 9.35,-2.58 15.71,-3.37 6.57,-0.8 14.52,-1.2 24.27,-1.2 9.35,0 17.11,0.4 23.68,1.2 6.36,0.79 11.54,1.98 15.31,3.37 3.97,1.6 6.56,3.58 8.15,5.98 1.59,2.39 2.39,4.77 2.39,7.55l0 653.78 76.38 0c7.75,0 13.32,2.19 16.51,6.76 3.38,4.38 4.97,11.54 4.97,21.68l0 240.46zm552.34 -482.72c0,15.12 -3.79,25.86 -11.34,32.42 -7.56,6.37 -16.31,9.55 -26.05,9.55l-344.5 0c0,29.25 2.99,55.5 8.76,78.77 5.77,23.47 15.51,43.56 29.24,60.27 13.53,16.7 31.23,29.43 52.91,38.39 21.87,8.95 48.52,13.53 79.95,13.53 24.87,0 47.14,-1.99 66.43,-6.17 19.49,-3.97 36.41,-8.55 50.53,-13.52 14.12,-4.98 25.85,-9.55 35.01,-13.53 9.15,-4.18 15.91,-6.16 20.69,-6.16 2.78,0 5.17,0.59 7.36,1.98 1.99,1.4 3.78,3.38 4.77,6.17 1.19,2.58 2.19,6.36 2.78,11.13 0.6,4.98 0.8,10.75 0.8,17.7 0,4.98 -0.2,9.36 -0.59,13.13 -0.4,3.58 -0.8,6.96 -1.4,9.74 -0.59,2.99 -1.59,5.57 -2.98,7.96 -1.39,2.19 -2.99,4.38 -5.18,6.57 -2.18,2.19 -8.55,5.56 -18.89,10.34 -10.54,4.97 -24.06,9.55 -40.77,14.32 -16.7,4.58 -36,8.75 -57.88,12.33 -21.87,3.79 -45.14,5.57 -70.01,5.57 -43.16,0 -80.75,-5.97 -113.17,-18.09 -32.42,-11.94 -59.67,-29.84 -81.74,-53.5 -22.08,-23.87 -38.79,-53.5 -49.92,-89.31 -11.34,-35.61 -16.91,-77.17 -16.91,-124.71 0,-44.95 5.77,-85.53 17.5,-121.53 11.54,-35.8 28.45,-66.43 50.32,-91.49 21.88,-25.07 48.53,-44.16 79.56,-57.68 31.03,-13.33 65.83,-20.09 104.22,-20.09 41.18,0 76.18,6.56 105.02,19.89 29.04,13.12 52.7,31.02 71.4,53.31 18.5,22.28 32.22,48.52 40.97,78.76 8.76,30.04 13.13,62.26 13.13,96.47l0 17.5zm-96.66 -28.44c1.19,-50.53 -9.95,-90.3 -33.61,-119.15 -23.68,-28.83 -58.48,-43.16 -104.82,-43.16 -23.87,0 -44.76,4.38 -62.65,13.33 -17.91,8.94 -32.83,20.88 -44.95,35.8 -12.13,14.71 -21.48,32.02 -28.04,51.51 -6.57,19.69 -10.34,40.17 -11.14,61.66l285.23 0zm726.16 42.77c0,45.94 -4.97,87.12 -14.91,123.71 -9.75,36.4 -24.27,67.43 -43.56,92.89 -19.09,25.46 -42.96,45.15 -71.2,58.87 -28.24,13.73 -60.66,20.69 -97.06,20.69 -15.52,0 -29.84,-1.59 -42.96,-4.58 -13.33,-3.18 -26.06,-7.96 -38.79,-14.71 -12.53,-6.57 -25.06,-14.92 -37.39,-25.07 -12.53,-9.94 -25.66,-21.88 -39.58,-35.4l0 262.74c0,3.18 -0.8,5.77 -2.39,8.15 -1.59,2.39 -3.97,4.37 -7.55,5.97 -3.59,1.39 -8.36,2.58 -14.72,3.38 -6.16,0.79 -14.12,1.19 -23.87,1.19 -9.55,0 -17.31,-0.4 -23.47,-1.19 -6.36,-0.8 -11.34,-1.99 -14.92,-3.38 -3.78,-1.6 -6.36,-3.58 -7.75,-5.97 -1.4,-2.39 -1.99,-4.98 -1.99,-8.15l0 -732.95c0,-3.58 0.59,-6.36 1.78,-8.55 1.2,-1.99 3.59,-3.97 6.96,-5.37 3.59,-1.59 7.96,-2.78 13.53,-3.37 5.37,-0.6 12.14,-0.8 19.89,-0.8 8.15,0 14.92,0.2 20.29,0.8 5.17,0.59 9.55,1.78 13.12,3.18 3.58,1.6 5.97,3.58 7.36,5.57 1.39,2.19 1.99,4.97 1.99,8.55l0 70.22c15.91,-16.31 31.23,-30.43 45.94,-42.57 14.72,-11.93 29.64,-21.88 44.56,-29.83 14.92,-7.96 30.23,-14.13 45.94,-18.1 15.72,-4.18 32.22,-6.16 49.73,-6.16 37.99,0 70.21,7.36 97.06,22.08 26.65,14.91 48.53,35.01 65.44,60.66 16.9,25.66 29.24,55.5 37,89.5 7.75,34.01 11.53,70.01 11.53,108zm-100.24 11.13c0,-26.85 -1.98,-52.9 -6.16,-77.97 -3.97,-25.06 -11.14,-47.34 -20.88,-66.83 -9.95,-19.49 -23.27,-35.01 -39.97,-46.74 -16.71,-11.74 -37.6,-17.51 -62.46,-17.51 -12.53,0 -24.66,1.79 -36.8,5.57 -11.93,3.79 -24.27,9.55 -36.79,17.5 -12.34,7.96 -25.46,18.5 -38.99,31.62 -13.52,13.13 -28.04,29.25 -43.16,48.34l0 208.64c26.46,32.42 51.51,57.09 75.19,74.39 23.86,17.11 48.73,25.66 74.78,25.66 24.07,0 44.75,-5.77 62.05,-17.5 17.31,-11.73 31.23,-27.24 41.97,-46.74 10.75,-19.49 18.5,-41.17 23.68,-65.43 4.97,-24.07 7.55,-48.53 7.55,-73zm672.27 263.94c0,2.19 -0.59,4.38 -1.98,5.97 -1.4,1.79 -3.98,3.38 -7.56,4.38 -3.78,1.19 -8.55,2.19 -14.72,2.78 -5.97,0.6 -13.72,0.8 -23.06,0.8 -10.75,0 -19.69,-0.39 -26.46,-1.19 -6.76,-0.8 -12.34,-1.78 -16.71,-3.18 -4.17,-1.39 -7.36,-3.18 -9.14,-5.17 -1.99,-2.19 -3.38,-4.58 -4.18,-7.36l-55.69 -135.85c-6.96,-17.5 -14.32,-32.42 -22.28,-45.15 -7.96,-12.53 -17.11,-22.88 -27.65,-30.63 -10.34,-7.76 -22.08,-13.33 -35.4,-16.91 -13.13,-3.38 -28.04,-5.17 -45.15,-5.17l-40.58 0 0 236.09c0,1.98 -1,3.78 -2.99,5.77 -1.98,1.98 -4.77,3.58 -8.75,4.57 -3.97,1.2 -8.95,2.19 -15.31,2.99 -6.17,0.8 -13.33,1.19 -21.49,1.19 -8.35,0 -15.51,-0.39 -21.67,-1.19 -6.37,-0.8 -11.34,-1.78 -15.31,-2.99 -3.98,-0.99 -6.76,-2.58 -8.56,-4.57 -1.78,-1.99 -2.58,-3.98 -2.58,-5.77l0 -533.05c0,-1.78 0.8,-3.78 2.58,-5.36 1.79,-1.79 4.58,-3.38 8.56,-4.38 3.97,-1.19 8.94,-2.19 15.31,-2.78 6.16,-0.6 13.32,-0.8 21.67,-0.8 8.15,0 15.31,0.2 21.49,0.8 6.36,0.59 11.34,1.59 15.31,2.78 3.97,1 6.76,2.58 8.75,4.38 1.99,1.59 2.99,3.58 2.99,5.56l0 220.38 40.58 0c14.51,0 28.04,-1.59 40.17,-4.97 12.14,-3.38 23.27,-8.76 33.22,-16.31 10.15,-7.76 19.09,-17.5 26.85,-29.64 7.96,-12.13 15.31,-26.65 21.88,-43.75l48.53 -121.14c0.79,-3.18 2.19,-5.77 3.97,-8.15 1.99,-2.39 4.97,-4.37 8.76,-5.77 3.97,-1.59 9.14,-2.78 15.51,-3.37 6.36,-0.6 14.92,-0.8 25.46,-0.8 9.15,0 16.9,0.2 22.87,0.8 5.98,0.59 10.75,1.59 14.13,2.78 3.18,1 5.36,2.58 6.56,4.38 1.19,1.59 1.79,3.58 1.79,5.36 0,3.58 -0.4,7.37 -1.39,11.14 -1,3.97 -2.39,8.35 -4.38,13.53l-50.12 115.56c-7.76,19.49 -16.11,35.8 -25.26,49.13 -9.15,13.12 -18.3,24.27 -27.65,33.01 -9.15,8.76 -18.7,15.52 -28.44,20.49 -9.55,4.77 -18.89,8.55 -27.85,11.34l0 1.19c13.53,4.58 26.05,10.15 37.59,16.7 11.54,6.76 22.08,14.92 32.03,24.46 9.94,9.75 19.09,21.29 27.65,34.81 8.55,13.33 16.51,28.64 24.06,46.15l57.68 132.86c1.59,2.58 2.58,5.18 3.38,7.56 0.79,2.18 1.39,4.58 1.78,6.56 0.4,2.19 0.8,3.98 1,5.37 0.2,1.39 0.2,2.58 0.2,3.78zm596.3 -272.68c0,42.76 -5.57,82.14 -16.91,118.14 -11.14,35.8 -28.04,66.83 -50.32,92.89 -22.28,26.05 -50.33,46.34 -83.74,60.86 -33.61,14.52 -72.6,21.88 -116.76,21.88 -43.16,0 -80.75,-6.36 -112.78,-19.29 -32.02,-12.73 -58.67,-31.43 -79.95,-55.89 -21.29,-24.46 -37.19,-54.3 -47.74,-89.11 -10.54,-35.01 -15.72,-74.59 -15.72,-118.94 0,-42.77 5.57,-82.15 16.51,-117.95 11.14,-36 27.85,-67.02 50.12,-93.08 22.28,-26.05 50.13,-46.14 83.54,-60.66 33.42,-14.32 72.4,-21.48 116.96,-21.48 43.16,0 80.75,6.36 112.78,19.29 32.02,12.73 58.67,31.43 79.95,55.89 21.29,24.46 37.4,54.1 48.14,89.11 10.54,35.01 15.91,74.39 15.91,118.35zm-100.25 6.16c0,-28.44 -2.58,-55.3 -7.95,-80.55 -5.18,-25.26 -13.92,-47.34 -26.06,-66.43 -11.93,-19.1 -28.44,-34.22 -49.13,-45.15 -20.49,-11.14 -46.34,-16.71 -77.17,-16.71 -28.45,0 -52.91,4.98 -73.4,15.12 -20.48,10.15 -37.19,24.46 -50.52,42.96 -13.32,18.5 -23.07,40.38 -29.43,65.64 -6.57,25.25 -9.75,52.9 -9.75,82.74 0,28.84 2.59,55.89 7.96,81.15 5.18,25.25 13.92,47.33 26.26,66.23 12.33,18.7 28.84,33.81 49.32,44.75 20.69,11.14 46.54,16.7 77.38,16.7 28.04,0 52.31,-4.97 72.99,-15.12 20.69,-10.14 37.6,-24.26 50.92,-42.56 13.33,-18.3 23.07,-40.18 29.24,-65.43 6.17,-25.26 9.35,-53.11 9.35,-83.34zm673.47 111.39c0,27.64 -5.17,52.31 -15.71,73.79 -10.54,21.68 -26.06,39.58 -46.74,54.3 -20.49,14.51 -46.15,25.66 -76.77,33.21 -30.83,7.56 -66.64,11.34 -107.41,11.34 -12.73,0 -25.25,0 -37.19,-0.2 -12.13,-0.2 -23.86,-0.6 -35.01,-1.19 -11.34,-0.6 -22.47,-1.39 -33.61,-2.19 -10.94,-0.59 -22.08,-1.59 -32.82,-2.78 -15.71,-1.99 -27.05,-7.16 -34.4,-15.52 -7.37,-8.35 -11.14,-20.68 -11.14,-36.99l0 -451.51c0,-15.91 3.58,-28.24 10.74,-36.79 7.16,-8.56 18.3,-13.53 33.02,-15.12 10.14,-1.19 20.88,-2.19 32.41,-2.99 11.34,-0.59 23.07,-1.39 35.21,-1.99 12.13,-0.59 24.46,-0.99 37.39,-1.39 12.73,-0.39 25.66,-0.59 38.98,-0.59 37.8,0 70.41,3.18 97.87,9.35 27.64,6.16 50.52,15.31 68.82,27.24 18.29,12.14 31.82,26.85 40.58,44.35 8.75,17.5 13.12,37.39 13.12,59.87 0,29.43 -7.96,54.7 -23.68,75.78 -15.71,20.88 -38.98,35.8 -69.61,44.75 38.39,8.15 67.43,23.87 86.91,47.14 19.3,23.47 29.04,52.7 29.04,88.11zm-115.75 -243.25c0,-12.73 -2.39,-24.07 -6.96,-34.22 -4.77,-9.94 -12.34,-18.5 -23.07,-25.46 -10.74,-6.96 -24.66,-12.13 -41.57,-15.71 -16.9,-3.38 -37.39,-5.18 -61.66,-5.18 -18.29,0 -35.01,0.4 -50.12,1.4 -15.31,0.99 -28.04,2.18 -38.58,3.18l0 162.5 98.05 0c40.18,0 70.81,-7.36 92.09,-22.28 21.29,-14.92 31.83,-36.4 31.83,-64.24zm16.7 244.64c0,-15.51 -2.78,-29.24 -8.15,-40.97 -5.36,-11.94 -14.12,-21.68 -25.85,-29.44 -11.93,-7.75 -27.05,-13.52 -45.55,-17.5 -18.3,-3.78 -40.18,-5.77 -65.43,-5.77l-93.69 0 0 185.77c7.36,1.19 15.12,1.99 23.07,2.58 7.96,0.6 16.11,1.19 24.46,1.79 8.35,0.59 16.51,1 24.86,1.39 8.35,0.39 16.11,0.6 23.07,0.6 25.26,0 46.74,-2.19 64.65,-6.76 17.9,-4.38 32.62,-10.95 44.55,-19.49 11.73,-8.55 20.49,-18.89 25.85,-31.03 5.37,-12.33 8.15,-26.05 8.15,-41.17zm675.45 -17.5c0,26.85 -4.97,51.92 -14.91,75.19 -9.95,23.27 -25.26,43.55 -46.34,60.66 -20.88,17.1 -47.74,30.63 -80.35,40.37 -32.83,9.95 -71.8,14.92 -117.35,14.92 -10.34,0 -21.28,0 -32.62,-0.2 -11.34,-0.2 -22.28,-0.59 -33.22,-1.19 -10.94,-0.6 -21.48,-1.39 -32.02,-2.19 -10.54,-0.59 -20.88,-1.59 -31.03,-2.78 -16.31,-1.99 -28.24,-7.16 -36,-15.72 -7.76,-8.55 -11.73,-21.67 -11.73,-39.18l0 -487.51c0,-3.18 0.59,-5.77 1.99,-7.95 1.39,-1.99 3.97,-3.98 7.75,-5.77 3.58,-1.79 8.56,-2.99 14.92,-3.58 6.16,-0.6 13.92,-0.8 23.47,-0.8 9.35,0 17.11,0.2 23.27,0.8 6.37,0.59 11.34,1.78 14.92,3.58 3.78,1.78 6.37,3.78 7.96,5.77 1.59,2.18 2.39,4.77 2.39,7.95l0 184.78c14.32,-1.19 29.84,-2.19 46.54,-2.78 16.7,-0.6 33.81,-0.8 51.31,-0.8 42.37,0 78.77,4.18 109.2,12.53 30.43,8.35 55.3,20.28 74.78,35.8 19.49,15.51 33.81,34.01 43.16,55.69 9.36,21.48 13.92,45.74 13.92,72.4zm-101.44 6.57c0,-16.11 -2.58,-30.64 -7.55,-43.76 -4.98,-12.93 -13.33,-24.07 -25.07,-33.22 -11.54,-9.15 -26.85,-16.31 -45.35,-21.08 -18.7,-4.97 -41.57,-7.36 -68.62,-7.36 -16.31,0 -32.42,0.39 -48.13,1.19 -15.72,0.8 -30.04,1.78 -42.77,2.98l0 202.49c13.53,1.39 28.04,2.78 43.76,3.97 15.51,1.19 32.62,1.79 51.71,1.79 48.14,0 83.74,-9.55 107.01,-28.45 23.27,-18.89 35.01,-45.15 35.01,-78.56z"/>
  </g>
  <g id="_2171671075088">
   <path class="fil0" d="M30912.06 4600.5c4.97,8.55 7.96,15.31 8.95,20.28 1,5.18 -0.2,9.15 -3.79,11.94 -3.37,2.98 -9.14,4.97 -17.1,5.97 -7.96,1 -18.5,1.39 -31.83,1.39 -12.33,0 -22.08,-0.2 -29.04,-0.8 -6.96,-0.59 -12.52,-1.78 -16.7,-3.38 -3.97,-1.39 -7.16,-3.37 -9.35,-5.36 -1.99,-2.19 -3.97,-4.97 -5.37,-8.55l-167.87 -300.15 -169.66 300.15c-1.78,3.58 -3.97,6.36 -6.36,8.75 -2.39,2.39 -5.57,4.18 -9.55,5.57 -4.18,1.39 -9.75,2.39 -16.71,2.98 -6.96,0.6 -16.31,0.8 -27.85,0.8 -12.93,0 -23.07,-0.39 -30.43,-1.39 -7.36,-1 -12.53,-2.99 -15.31,-5.97 -2.99,-2.79 -3.98,-6.76 -2.99,-11.94 1,-4.97 3.98,-11.73 8.95,-20.28l205.86 -346.88 -196.51 -335.34c-4.58,-8.56 -7.55,-15.32 -8.95,-20.69 -1.39,-5.18 -0.59,-9.35 2.59,-12.14 3.18,-2.98 8.55,-4.77 16.31,-5.56 7.75,-0.8 18.49,-1.2 32.02,-1.2 11.73,0 21.28,0.21 28.64,0.8 7.36,0.6 13.12,1.6 17.5,2.99 4.17,1.39 7.36,3.38 9.35,5.77 1.78,2.58 3.97,5.36 6.36,8.55l161.9 282.04 160.91 -282.04c1.99,-3.18 3.78,-5.97 5.77,-8.55 1.99,-2.39 4.77,-4.38 8.55,-5.77 3.58,-1.39 8.76,-2.39 15.31,-2.99 6.57,-0.59 15.52,-0.8 26.85,-0.8 12.14,0 21.88,0.4 29.44,1.4 7.55,1 12.93,2.78 16.31,5.56 3.38,2.79 4.58,6.76 3.78,11.94 -0.8,5.36 -3.58,12.13 -8.15,20.69l-195.71 332.95 203.87 349.26zm610.61 -249.41c0,45.94 -4.97,87.12 -14.91,123.71 -9.75,36.4 -24.27,67.43 -43.56,92.89 -19.09,25.46 -42.96,45.15 -71.2,58.87 -28.24,13.73 -60.66,20.69 -97.06,20.69 -15.52,0 -29.84,-1.59 -42.96,-4.58 -13.33,-3.18 -26.06,-7.96 -38.79,-14.71 -12.53,-6.57 -25.06,-14.92 -37.39,-25.07 -12.53,-9.94 -25.66,-21.88 -39.58,-35.4l0 262.74c0,3.18 -0.8,5.77 -2.39,8.15 -1.59,2.39 -3.97,4.37 -7.55,5.97 -3.59,1.39 -8.36,2.58 -14.72,3.38 -6.16,0.79 -14.12,1.19 -23.87,1.19 -9.55,0 -17.31,-0.4 -23.47,-1.19 -6.36,-0.8 -11.34,-1.99 -14.92,-3.38 -3.78,-1.6 -6.36,-3.58 -7.75,-5.97 -1.4,-2.39 -1.99,-4.98 -1.99,-8.15l0 -732.95c0,-3.58 0.59,-6.36 1.78,-8.55 1.2,-1.99 3.59,-3.97 6.96,-5.37 3.59,-1.59 7.96,-2.78 13.53,-3.37 5.37,-0.6 12.14,-0.8 19.89,-0.8 8.15,0 14.92,0.2 20.29,0.8 5.17,0.59 9.55,1.78 13.12,3.18 3.58,1.6 5.97,3.58 7.36,5.57 1.39,2.19 1.99,4.97 1.99,8.55l0 70.22c15.91,-16.31 31.23,-30.43 45.94,-42.57 14.72,-11.93 29.64,-21.88 44.56,-29.83 14.92,-7.96 30.23,-14.13 45.94,-18.1 15.72,-4.18 32.22,-6.16 49.73,-6.16 37.99,0 70.21,7.36 97.06,22.08 26.65,14.91 48.53,35.01 65.44,60.66 16.9,25.66 29.24,55.5 37,89.5 7.75,34.01 11.53,70.01 11.53,108zm-100.24 11.13c0,-26.85 -1.98,-52.9 -6.16,-77.97 -3.97,-25.06 -11.14,-47.34 -20.88,-66.83 -9.95,-19.49 -23.27,-35.01 -39.97,-46.74 -16.71,-11.74 -37.6,-17.51 -62.46,-17.51 -12.53,0 -24.66,1.79 -36.8,5.57 -11.93,3.79 -24.27,9.55 -36.79,17.5 -12.34,7.96 -25.46,18.5 -38.99,31.62 -13.52,13.13 -28.04,29.25 -43.16,48.34l0 208.64c26.46,32.42 51.51,57.09 75.19,74.39 23.86,17.11 48.73,25.66 74.78,25.66 24.07,0 44.75,-5.77 62.05,-17.5 17.31,-11.73 31.23,-27.24 41.97,-46.74 10.75,-19.49 18.5,-41.17 23.68,-65.43 4.97,-24.07 7.55,-48.53 7.55,-73zm711.66 260.36c0,2.78 -0.8,5.37 -2.39,7.56 -1.59,2.39 -3.97,4.17 -7.55,5.56 -3.38,1.4 -8.36,2.39 -14.52,3.18 -6.16,0.8 -13.92,1.19 -23.27,1.19 -9.35,0 -17.11,-0.39 -23.27,-1.19 -6.16,-0.8 -11.34,-1.78 -15.12,-3.18 -3.97,-1.39 -6.57,-3.18 -8.15,-5.56 -1.59,-2.4 -2.39,-4.78 -2.39,-7.56l0 -301.93c0,-15.31 0.39,-30.63 1.19,-46.54 0.8,-15.71 1.79,-31.02 2.99,-46.33 -8.95,15.71 -18.9,30.82 -29.44,45.94 -10.74,14.92 -21.48,29.84 -32.21,44.55l-222.17 304.32c-2.79,3.18 -5.18,5.77 -7.37,8.15 -2.19,2.39 -4.97,4.18 -8.15,5.57 -3.38,1.39 -7.55,2.39 -12.73,2.98 -4.97,0.6 -11.33,0.8 -18.7,0.8 -8.55,0 -15.71,-0.39 -21.08,-1.19 -5.57,-0.8 -9.94,-1.78 -13.12,-3.18 -3.38,-1.39 -5.77,-3.18 -7.16,-5.56 -1.4,-2.4 -1.99,-4.78 -1.99,-7.56l0 -525.88c0,-2.78 0.59,-5.18 1.99,-7.56 1.39,-2.39 3.97,-4.37 7.75,-5.77 3.58,-1.59 8.56,-2.78 14.92,-3.37 6.16,-0.6 13.73,-0.8 22.88,-0.8 18.7,0 31.62,1.39 38.58,4.38 6.96,2.98 10.54,7.36 10.54,13.12l0 303.72c0,15.12 -0.39,30.23 -1.19,45.15 -0.8,15.12 -1.79,29.83 -2.99,44.75 8.95,-14.92 18.1,-29.24 27.25,-43.55 8.95,-14.12 18.89,-28.04 29.24,-41.57l225.16 -308.49c2.18,-3.18 4.58,-5.77 7.16,-7.96 2.58,-2.19 5.57,-3.97 9.35,-5.17 3.58,-1.4 7.96,-2.19 13.12,-2.79 4.97,-0.59 11.54,-1 19.69,-1 8.15,0 15.12,0.4 20.69,1 5.77,0.6 10.15,1.6 13.52,3.18 3.18,1.59 5.57,3.38 6.96,5.77 1.4,2.39 1.99,4.97 1.99,8.15l0 524.69zm555.53 -81.35c0,6.57 -0.2,12.34 -0.59,17.11 -0.4,4.97 -1,8.94 -1.99,12.33 -1,3.38 -2.19,6.17 -3.58,8.76 -1.39,2.58 -4.38,6.36 -9.35,11.13 -4.77,4.98 -13.12,10.95 -24.66,18.3 -11.73,7.16 -24.87,13.73 -39.38,19.3 -14.72,5.77 -30.43,10.34 -47.54,13.73 -17.11,3.58 -34.81,5.36 -53.11,5.36 -37.79,0 -71.2,-6.16 -100.24,-18.7 -29.24,-12.33 -53.7,-30.43 -73.2,-54.3 -19.69,-23.86 -34.61,-53.3 -44.95,-87.91 -10.33,-34.81 -15.51,-74.78 -15.51,-120.34 0,-51.51 6.37,-95.86 18.89,-133.06 12.73,-37 30.04,-67.43 51.92,-91.09 22.08,-23.68 47.93,-41.18 77.57,-52.71 29.83,-11.33 62.05,-17.1 96.66,-17.1 16.7,0 32.82,1.59 48.53,4.77 15.91,2.98 30.23,7.16 43.55,12.13 13.12,5.18 25.07,10.95 35.2,17.7 10.34,6.57 17.91,12.34 22.48,16.91 4.77,4.77 7.95,8.55 9.74,11.14 1.59,2.78 3.18,5.97 4.38,9.74 1,3.58 1.78,7.76 2.19,12.53 0.39,4.58 0.59,10.54 0.59,17.5 0,15.12 -1.78,25.66 -5.17,31.82 -3.58,5.97 -7.76,8.95 -12.93,8.95 -5.77,0 -12.53,-3.18 -20.1,-9.75 -7.55,-6.36 -17.1,-13.52 -28.84,-21.28 -11.73,-7.76 -25.85,-14.92 -42.36,-21.28 -16.51,-6.57 -36,-9.75 -58.47,-9.75 -46.34,0 -81.95,17.71 -106.61,53.31 -24.66,35.41 -37,86.92 -37,154.35 0,33.61 3.18,63.25 9.55,88.71 6.56,25.26 15.91,46.54 28.44,63.65 12.34,16.91 27.65,29.63 45.74,37.99 18.1,8.35 38.79,12.52 62.06,12.52 22.28,0 41.77,-3.58 58.47,-10.54 16.7,-6.96 31.03,-14.71 43.36,-23.27 12.34,-8.35 22.68,-15.91 31.03,-22.67 8.35,-6.96 14.72,-10.34 19.49,-10.34 2.58,0 4.97,0.8 6.96,2.39 1.98,1.59 3.58,4.18 4.97,7.76 1.39,3.78 2.39,8.35 2.98,14.12 0.6,5.57 0.8,12.33 0.8,20.09zm493.87 -414.9c0,7.76 -0.39,14.33 -1.19,19.69 -0.8,5.57 -1.99,9.95 -3.78,13.33 -1.79,3.58 -3.79,6.16 -5.97,7.96 -2.4,1.78 -5.37,2.58 -8.76,2.58l-156.93 0 0 452.1c0,3.18 -0.8,5.76 -2.39,7.95 -1.59,1.99 -3.97,3.98 -7.55,5.57 -3.59,1.39 -8.36,2.58 -14.72,3.38 -6.16,0.8 -14.12,1.19 -23.87,1.19 -9.55,0 -17.31,-0.39 -23.47,-1.19 -6.36,-0.8 -11.34,-1.99 -14.92,-3.38 -3.78,-1.59 -6.36,-3.58 -7.75,-5.57 -1.4,-2.19 -1.99,-4.77 -1.99,-7.95l0 -452.1 -156.93 0c-2.99,0 -5.77,-0.8 -8.35,-2.58 -2.58,-1.79 -4.58,-4.38 -6.16,-7.96 -1.4,-3.38 -2.79,-7.96 -3.79,-13.53 -1,-5.57 -1.39,-12.33 -1.39,-20.09 0,-6.96 0.39,-13.12 1.39,-18.5 1,-5.57 2.39,-10.15 4.18,-13.73 1.78,-3.78 3.78,-6.36 6.16,-8.15 2.19,-1.78 4.97,-2.58 7.96,-2.58l410.53 0c2.99,0 5.77,0.8 8.35,2.58 2.58,1.79 4.58,4.38 6.16,8.15 1.4,3.58 2.79,8.35 3.79,13.92 1,5.57 1.39,11.93 1.39,18.89zm562.28 496.25c0,2.78 -0.8,5.37 -2.39,7.56 -1.59,2.39 -3.97,4.17 -7.55,5.56 -3.38,1.4 -8.36,2.39 -14.52,3.18 -6.16,0.8 -13.92,1.19 -23.27,1.19 -9.35,0 -17.11,-0.39 -23.27,-1.19 -6.16,-0.8 -11.34,-1.78 -15.12,-3.18 -3.97,-1.39 -6.57,-3.18 -8.15,-5.56 -1.59,-2.4 -2.39,-4.78 -2.39,-7.56l0 -301.93c0,-15.31 0.39,-30.63 1.19,-46.54 0.8,-15.71 1.79,-31.02 2.99,-46.33 -8.95,15.71 -18.9,30.82 -29.44,45.94 -10.74,14.92 -21.48,29.84 -32.21,44.55l-222.17 304.32c-2.79,3.18 -5.18,5.77 -7.37,8.15 -2.19,2.39 -4.97,4.18 -8.15,5.57 -3.38,1.39 -7.55,2.39 -12.73,2.98 -4.97,0.6 -11.33,0.8 -18.7,0.8 -8.55,0 -15.71,-0.39 -21.08,-1.19 -5.57,-0.8 -9.94,-1.78 -13.12,-3.18 -3.38,-1.39 -5.77,-3.18 -7.16,-5.56 -1.4,-2.4 -1.99,-4.78 -1.99,-7.56l0 -525.88c0,-2.78 0.59,-5.18 1.99,-7.56 1.39,-2.39 3.97,-4.37 7.75,-5.77 3.58,-1.59 8.56,-2.78 14.92,-3.37 6.16,-0.6 13.73,-0.8 22.88,-0.8 18.7,0 31.62,1.39 38.58,4.38 6.96,2.98 10.54,7.36 10.54,13.12l0 303.72c0,15.12 -0.39,30.23 -1.19,45.15 -0.8,15.12 -1.79,29.83 -2.99,44.75 8.95,-14.92 18.1,-29.24 27.25,-43.55 8.95,-14.12 18.89,-28.04 29.24,-41.57l225.16 -308.49c2.18,-3.18 4.58,-5.77 7.16,-7.96 2.58,-2.19 5.57,-3.97 9.35,-5.17 3.58,-1.4 7.96,-2.19 13.12,-2.79 4.97,-0.59 11.54,-1 19.69,-1 8.15,0 15.12,0.4 20.69,1 5.77,0.6 10.15,1.6 13.52,3.18 3.18,1.59 5.57,3.38 6.96,5.77 1.4,2.39 1.99,4.97 1.99,8.15l0 524.69zm565.07 -0.59c0,3.18 -0.59,5.76 -1.98,8.15 -1.4,2.39 -3.79,4.17 -7.37,5.56 -3.58,1.4 -8.35,2.39 -14.71,3.18 -6.17,0.8 -14.33,1.19 -24.46,1.19 -9.55,0 -17.31,-0.39 -23.48,-1.19 -6.36,-0.8 -11.33,-1.78 -14.91,-3.18 -3.79,-1.39 -6.37,-3.18 -7.76,-5.56 -1.39,-2.19 -1.99,-4.98 -1.99,-8.15l0 -220.58 -55.29 0c-24.07,0 -42.77,1.99 -56.29,5.77 -13.32,3.97 -25.46,10.34 -36,19.49 -10.74,9.14 -20.28,20.88 -28.83,35.01 -8.56,14.12 -16.71,31.43 -24.46,52.1l-42.57 102.44c-1.99,4.97 -3.97,9.14 -6.37,12.13 -2.39,3.18 -5.76,5.57 -10.14,7.36 -4.38,1.79 -10.15,2.99 -16.91,3.58 -6.76,0.6 -15.12,0.8 -25.25,0.8 -7.17,0 -13.73,-0.2 -19.3,-0.59 -5.57,-0.4 -10.34,-1 -14.32,-1.99 -3.79,-1 -6.76,-2.58 -8.56,-4.77 -1.98,-1.99 -2.98,-4.77 -2.98,-7.76 0,-2.78 1,-7.16 3.18,-13.12 2.19,-5.97 6.57,-16.51 13.13,-31.62l41.97 -98.46c10.94,-24.86 24.27,-46.34 40.17,-64.24 15.91,-18.1 34.22,-31.43 54.9,-39.98 -37.8,-6.96 -67.63,-22.08 -90.11,-45.14 -22.28,-23.27 -33.42,-53.91 -33.42,-92.1 0,-25.25 5.18,-48.13 15.72,-68.62 10.54,-20.48 25.85,-37.79 46.34,-51.91 20.28,-14.33 45.35,-25.26 75.18,-32.82 29.64,-7.56 63.65,-11.34 102.23,-11.34 9.15,0 20.1,0.2 32.22,0.59 12.34,0.4 24.86,1 37.79,1.79 13.13,0.8 25.66,1.59 37.99,2.58 12.14,1 22.68,1.79 31.62,2.58 11.73,1.19 20.49,5.37 26.26,12.93 5.77,7.37 8.75,16.52 8.75,27.25l0 498.64zm-96.66 -468.81c-13.92,-1.98 -28.24,-3.37 -42.96,-3.97 -14.51,-0.59 -28.04,-0.8 -40.58,-0.8 -26.25,0 -48.13,2.19 -65.63,6.76 -17.7,4.38 -31.62,10.95 -42.36,19.3 -10.54,8.35 -18.1,18.29 -22.48,29.63 -4.58,11.14 -6.76,23.68 -6.76,37.39 0,13.92 2.59,26.65 7.76,37.8 5.37,11.13 13.12,20.48 23.87,28.04 10.54,7.55 24.27,13.53 40.77,17.5 16.7,4.18 39.78,6.16 69.62,6.16l78.76 0 0 -177.82zm735.32 468.81c0,3.18 -0.8,5.76 -2.39,7.95 -1.59,1.99 -3.98,3.98 -7.56,5.57 -3.58,1.39 -8.35,2.58 -14.71,3.38 -6.17,0.8 -13.92,1.19 -23.27,1.19 -9.95,0 -17.91,-0.39 -24.07,-1.19 -6.36,-0.8 -11.14,-1.99 -14.72,-3.38 -3.58,-1.59 -5.97,-3.58 -7.55,-5.57 -1.59,-2.19 -2.39,-4.77 -2.39,-7.95l0 -230.13 -266.13 0 0 230.13c0,3.18 -0.8,5.76 -2.39,7.95 -1.59,1.99 -3.97,3.98 -7.55,5.57 -3.59,1.39 -8.36,2.58 -14.72,3.38 -6.16,0.8 -14.12,1.19 -23.87,1.19 -9.55,0 -17.31,-0.39 -23.47,-1.19 -6.36,-0.8 -11.34,-1.99 -14.92,-3.38 -3.78,-1.59 -6.36,-3.58 -7.75,-5.57 -1.4,-2.19 -1.99,-4.77 -1.99,-7.95l0 -524.7c0,-3.18 0.59,-5.77 1.99,-7.95 1.39,-1.99 3.97,-3.98 7.75,-5.77 3.58,-1.79 8.56,-2.99 14.92,-3.58 6.16,-0.6 13.92,-0.8 23.47,-0.8 9.75,0 17.71,0.2 23.87,0.8 6.36,0.59 11.13,1.78 14.72,3.58 3.58,1.78 5.97,3.78 7.55,5.77 1.59,2.18 2.39,4.77 2.39,7.95l0 213.42 266.13 0 0 -213.42c0,-3.18 0.8,-5.77 2.39,-7.95 1.59,-1.99 3.97,-3.98 7.55,-5.77 3.58,-1.79 8.36,-2.99 14.72,-3.58 6.16,-0.6 14.12,-0.8 24.07,-0.8 9.35,0 17.1,0.2 23.27,0.8 6.36,0.59 11.13,1.78 14.71,3.58 3.58,1.78 5.98,3.78 7.56,5.77 1.59,2.18 2.39,4.77 2.39,7.95l0 524.7zm555.72 -80.76c0,6.57 -0.2,12.34 -0.59,17.11 -0.4,4.97 -1,8.94 -1.99,12.33 -1,3.38 -2.19,6.17 -3.58,8.76 -1.39,2.58 -4.38,6.36 -9.35,11.13 -4.77,4.98 -13.12,10.95 -24.66,18.3 -11.73,7.16 -24.87,13.73 -39.38,19.3 -14.72,5.77 -30.43,10.34 -47.54,13.73 -17.11,3.58 -34.81,5.36 -53.11,5.36 -37.79,0 -71.2,-6.16 -100.24,-18.7 -29.24,-12.33 -53.7,-30.43 -73.2,-54.3 -19.69,-23.86 -34.61,-53.3 -44.95,-87.91 -10.33,-34.81 -15.51,-74.78 -15.51,-120.34 0,-51.51 6.37,-95.86 18.89,-133.06 12.73,-37 30.04,-67.43 51.92,-91.09 22.08,-23.68 47.93,-41.18 77.57,-52.71 29.83,-11.33 62.05,-17.1 96.66,-17.1 16.7,0 32.82,1.59 48.53,4.77 15.91,2.98 30.23,7.16 43.55,12.13 13.12,5.18 25.07,10.95 35.2,17.7 10.34,6.57 17.91,12.34 22.48,16.91 4.77,4.77 7.95,8.55 9.74,11.14 1.59,2.78 3.18,5.97 4.38,9.74 1,3.58 1.78,7.76 2.19,12.53 0.39,4.58 0.59,10.54 0.59,17.5 0,15.12 -1.78,25.66 -5.17,31.82 -3.58,5.97 -7.76,8.95 -12.93,8.95 -5.77,0 -12.53,-3.18 -20.1,-9.75 -7.55,-6.36 -17.1,-13.52 -28.84,-21.28 -11.73,-7.76 -25.85,-14.92 -42.36,-21.28 -16.51,-6.57 -36,-9.75 -58.47,-9.75 -46.34,0 -81.95,17.71 -106.61,53.31 -24.66,35.41 -37,86.92 -37,154.35 0,33.61 3.18,63.25 9.55,88.71 6.56,25.26 15.91,46.54 28.44,63.65 12.34,16.91 27.65,29.63 45.74,37.99 18.1,8.35 38.79,12.52 62.06,12.52 22.28,0 41.77,-3.58 58.47,-10.54 16.7,-6.96 31.03,-14.71 43.36,-23.27 12.34,-8.35 22.68,-15.91 31.03,-22.67 8.35,-6.96 14.72,-10.34 19.49,-10.34 2.58,0 4.97,0.8 6.96,2.39 1.98,1.59 3.58,4.18 4.97,7.76 1.39,3.78 2.39,8.35 2.98,14.12 0.6,5.57 0.8,12.33 0.8,20.09zm563.08 -86.32c0,26.85 -4.97,51.92 -14.91,75.19 -9.95,23.27 -25.26,43.55 -46.34,60.66 -20.88,17.1 -47.74,30.63 -80.35,40.37 -32.83,9.95 -71.8,14.92 -117.35,14.92 -10.34,0 -21.28,0 -32.62,-0.2 -11.34,-0.2 -22.28,-0.59 -33.22,-1.19 -10.94,-0.6 -21.48,-1.39 -32.02,-2.19 -10.54,-0.59 -20.88,-1.59 -31.03,-2.78 -16.31,-1.99 -28.24,-7.16 -36,-15.72 -7.76,-8.55 -11.73,-21.67 -11.73,-39.18l0 -487.51c0,-3.18 0.59,-5.77 1.99,-7.95 1.39,-1.99 3.97,-3.98 7.75,-5.77 3.58,-1.79 8.56,-2.99 14.92,-3.58 6.16,-0.6 13.92,-0.8 23.47,-0.8 9.35,0 17.11,0.2 23.27,0.8 6.37,0.59 11.34,1.78 14.92,3.58 3.78,1.78 6.37,3.78 7.96,5.77 1.59,2.18 2.39,4.77 2.39,7.95l0 184.78c14.32,-1.19 29.84,-2.19 46.54,-2.78 16.7,-0.6 33.81,-0.8 51.31,-0.8 42.37,0 78.77,4.18 109.2,12.53 30.43,8.35 55.3,20.28 74.78,35.8 19.49,15.51 33.81,34.01 43.16,55.69 9.36,21.48 13.92,45.74 13.92,72.4zm-101.44 6.57c0,-16.11 -2.58,-30.64 -7.55,-43.76 -4.98,-12.93 -13.33,-24.07 -25.07,-33.22 -11.54,-9.15 -26.85,-16.31 -45.35,-21.08 -18.7,-4.97 -41.57,-7.36 -68.62,-7.36 -16.31,0 -32.42,0.39 -48.13,1.19 -15.72,0.8 -30.04,1.78 -42.77,2.98l0 202.49c13.53,1.39 28.04,2.78 43.76,3.97 15.51,1.19 32.62,1.79 51.71,1.79 48.14,0 83.74,-9.55 107.01,-28.45 23.27,-18.89 35.01,-45.15 35.01,-78.56zm653.58 164.68c0,2.19 -0.59,4.38 -1.98,5.97 -1.4,1.79 -3.98,3.38 -7.56,4.38 -3.78,1.19 -8.55,2.19 -14.72,2.78 -5.97,0.6 -13.72,0.8 -23.06,0.8 -10.75,0 -19.69,-0.39 -26.46,-1.19 -6.76,-0.8 -12.34,-1.78 -16.71,-3.18 -4.17,-1.39 -7.36,-3.18 -9.14,-5.17 -1.99,-2.19 -3.38,-4.58 -4.18,-7.36l-55.69 -135.85c-6.96,-17.5 -14.32,-32.42 -22.28,-45.15 -7.96,-12.53 -17.11,-22.88 -27.65,-30.63 -10.34,-7.76 -22.08,-13.33 -35.4,-16.91 -13.13,-3.38 -28.04,-5.17 -45.15,-5.17l-40.58 0 0 236.09c0,1.98 -1,3.78 -2.99,5.77 -1.98,1.98 -4.77,3.58 -8.75,4.57 -3.97,1.2 -8.95,2.19 -15.31,2.99 -6.17,0.8 -13.33,1.19 -21.49,1.19 -8.35,0 -15.51,-0.39 -21.67,-1.19 -6.37,-0.8 -11.34,-1.78 -15.31,-2.99 -3.98,-0.99 -6.76,-2.58 -8.56,-4.57 -1.78,-1.99 -2.58,-3.98 -2.58,-5.77l0 -533.05c0,-1.78 0.8,-3.78 2.58,-5.36 1.79,-1.79 4.58,-3.38 8.56,-4.38 3.97,-1.19 8.94,-2.19 15.31,-2.78 6.16,-0.6 13.32,-0.8 21.67,-0.8 8.15,0 15.31,0.2 21.49,0.8 6.36,0.59 11.34,1.59 15.31,2.78 3.97,1 6.76,2.58 8.75,4.38 1.99,1.59 2.99,3.58 2.99,5.56l0 220.38 40.58 0c14.51,0 28.04,-1.59 40.17,-4.97 12.14,-3.38 23.27,-8.76 33.22,-16.31 10.15,-7.76 19.09,-17.5 26.85,-29.64 7.96,-12.13 15.31,-26.65 21.88,-43.75l48.53 -121.14c0.79,-3.18 2.19,-5.77 3.97,-8.15 1.99,-2.39 4.97,-4.37 8.76,-5.77 3.97,-1.59 9.14,-2.78 15.51,-3.37 6.36,-0.6 14.92,-0.8 25.46,-0.8 9.15,0 16.9,0.2 22.87,0.8 5.98,0.59 10.75,1.59 14.13,2.78 3.18,1 5.36,2.58 6.56,4.38 1.19,1.59 1.79,3.58 1.79,5.36 0,3.58 -0.4,7.37 -1.39,11.14 -1,3.97 -2.39,8.35 -4.38,13.53l-50.12 115.56c-7.76,19.49 -16.11,35.8 -25.26,49.13 -9.15,13.12 -18.3,24.27 -27.65,33.01 -9.15,8.76 -18.7,15.52 -28.44,20.49 -9.55,4.77 -18.89,8.55 -27.85,11.34l0 1.19c13.53,4.58 26.05,10.15 37.59,16.7 11.54,6.76 22.08,14.92 32.03,24.46 9.94,9.75 19.09,21.29 27.65,34.81 8.55,13.33 16.51,28.64 24.06,46.15l57.68 132.86c1.59,2.58 2.58,5.18 3.38,7.56 0.79,2.18 1.39,4.58 1.78,6.56 0.4,2.19 0.8,3.98 1,5.37 0.2,1.39 0.2,2.58 0.2,3.78zm503.82 -3.58c0,4.58 -1.6,8.15 -4.58,10.54 -3.18,2.39 -7.37,3.98 -12.93,5.18 -5.37,1.19 -13.33,1.78 -23.87,1.78 -9.95,0 -18.1,-0.59 -24.07,-1.78 -5.97,-1.19 -10.34,-2.79 -13.12,-5.18 -2.78,-2.39 -4.18,-5.77 -4.18,-10.54l0 -52.51c-22.87,24.46 -48.33,43.55 -76.57,57.08 -28.25,13.32 -58.08,20.09 -89.5,20.09 -27.65,0 -52.71,-3.58 -74.99,-10.74 -22.28,-7.16 -41.37,-17.7 -57.08,-31.23 -15.71,-13.52 -28.04,-30.43 -36.8,-50.12 -8.75,-19.89 -13.12,-42.36 -13.12,-67.62 0,-29.64 5.97,-55.3 18.1,-76.97 11.93,-21.88 29.24,-39.98 51.91,-54.3 22.48,-14.32 50.12,-25.26 82.74,-32.42 32.63,-7.16 69.42,-10.74 110.19,-10.74l72.4 0 0 -40.97c0,-20.1 -2.18,-37.99 -6.36,-53.7 -4.38,-15.52 -11.14,-28.45 -20.69,-38.79 -9.55,-10.34 -21.88,-18.09 -37,-23.27 -15.12,-5.36 -33.81,-7.96 -55.89,-7.96 -23.67,0 -44.94,2.79 -63.64,8.56 -18.9,5.77 -35.41,11.93 -49.53,18.89 -14.12,6.96 -26.05,13.12 -35.61,18.89 -9.35,5.77 -16.51,8.56 -21.08,8.56 -3.18,0 -5.97,-0.8 -8.15,-2.39 -2.39,-1.4 -4.37,-3.79 -6.16,-6.96 -1.79,-2.99 -2.99,-6.96 -3.78,-11.74 -0.8,-4.97 -1.19,-10.14 -1.19,-16.1 0,-9.55 0.59,-17.31 1.98,-22.88 1.4,-5.57 4.78,-10.94 9.95,-15.91 5.17,-4.97 14.32,-10.94 27.05,-17.9 12.73,-6.76 27.65,-13.12 44.35,-18.89 16.52,-5.57 34.81,-10.34 54.7,-14.13 19.69,-3.78 39.79,-5.56 59.87,-5.56 37.59,0 69.62,4.17 96.06,12.73 26.46,8.55 47.74,21.28 64.05,37.79 16.31,16.51 28.04,37 35.4,61.46 7.36,24.46 11.14,53.11 11.14,85.73l0 354.03zm-95.48 -240.27l-82.14 0c-26.26,0 -49.13,2.19 -68.62,6.76 -19.3,4.38 -35.41,11.14 -48.34,19.89 -12.73,8.76 -22.08,19.1 -28.24,31.43 -5.97,12.34 -8.95,26.46 -8.95,42.37 0,27.24 8.56,48.93 25.86,65.04 17.3,16.11 41.37,24.27 72.59,24.27 25.07,0 48.53,-6.37 70.01,-19.3 21.49,-12.73 44.16,-32.42 67.82,-58.88l0 -111.58z"/>
   <path class="fil0" d="M38217.37 4819.48c0,3.18 -0.59,5.57 -1.99,7.56 -1.39,1.99 -3.58,3.58 -6.75,4.77 -2.99,1 -7.37,1.99 -12.73,2.78 -5.37,0.8 -12.73,1.19 -22.08,1.19 -7.76,0 -14.33,-0.39 -19.69,-1.19 -5.37,-0.79 -9.95,-1.78 -13.33,-2.78 -3.58,-1.19 -5.97,-2.78 -7.36,-4.77 -1.39,-1.99 -1.99,-4.38 -1.99,-7.56l0 -182.98 -514.54 0c-10.95,0 -19.49,-3.38 -26.06,-10.15 -6.36,-6.76 -9.55,-17.1 -9.55,-30.63l0 -698.93c0,-2.78 0.8,-5.37 2.39,-7.55 1.6,-2.4 4.18,-4.38 8.15,-5.98 3.78,-1.39 9.15,-2.58 15.72,-3.37 6.56,-0.8 14.51,-1.2 23.86,-1.2 9.75,0 17.7,0.4 24.27,1.2 6.37,0.79 11.54,1.98 15.31,3.37 3.98,1.6 6.57,3.58 8.15,5.98 1.6,2.39 2.39,4.77 2.39,7.55l0 653.78 337.73 0 0 -653.78c0,-2.78 0.79,-5.17 2.39,-7.55 1.59,-2.4 4.38,-4.38 8.35,-5.98 4.18,-1.39 9.35,-2.58 15.71,-3.37 6.57,-0.8 14.52,-1.2 24.27,-1.2 9.35,0 17.11,0.4 23.68,1.2 6.36,0.79 11.54,1.98 15.31,3.37 3.97,1.6 6.56,3.58 8.15,5.98 1.59,2.39 2.39,4.77 2.39,7.55l0 653.78 76.38 0c7.75,0 13.32,2.19 16.51,6.76 3.38,4.38 4.97,11.54 4.97,21.68l0 240.46zm552.34 -482.72c0,15.12 -3.79,25.86 -11.34,32.42 -7.56,6.37 -16.31,9.55 -26.05,9.55l-344.5 0c0,29.25 2.99,55.5 8.76,78.77 5.77,23.47 15.51,43.56 29.24,60.27 13.53,16.7 31.23,29.43 52.91,38.39 21.87,8.95 48.52,13.53 79.95,13.53 24.87,0 47.14,-1.99 66.43,-6.17 19.49,-3.97 36.41,-8.55 50.53,-13.52 14.12,-4.98 25.85,-9.55 35.01,-13.53 9.15,-4.18 15.91,-6.16 20.69,-6.16 2.78,0 5.17,0.59 7.36,1.98 1.99,1.4 3.78,3.38 4.77,6.17 1.19,2.58 2.19,6.36 2.78,11.13 0.6,4.98 0.8,10.75 0.8,17.7 0,4.98 -0.2,9.36 -0.59,13.13 -0.4,3.58 -0.8,6.96 -1.4,9.74 -0.59,2.99 -1.59,5.57 -2.98,7.96 -1.39,2.19 -2.99,4.38 -5.18,6.57 -2.18,2.19 -8.55,5.56 -18.89,10.34 -10.54,4.97 -24.06,9.55 -40.77,14.32 -16.7,4.58 -36,8.75 -57.88,12.33 -21.87,3.79 -45.14,5.57 -70.01,5.57 -43.16,0 -80.75,-5.97 -113.17,-18.09 -32.42,-11.94 -59.67,-29.84 -81.74,-53.5 -22.08,-23.87 -38.79,-53.5 -49.92,-89.31 -11.34,-35.61 -16.91,-77.17 -16.91,-124.71 0,-44.95 5.77,-85.53 17.5,-121.53 11.54,-35.8 28.45,-66.43 50.32,-91.49 21.88,-25.07 48.53,-44.16 79.56,-57.68 31.03,-13.33 65.83,-20.09 104.22,-20.09 41.18,0 76.18,6.56 105.02,19.89 29.04,13.12 52.7,31.02 71.4,53.31 18.5,22.28 32.22,48.52 40.97,78.76 8.76,30.04 13.13,62.26 13.13,96.47l0 17.5zm-96.66 -28.44c1.19,-50.53 -9.95,-90.3 -33.61,-119.15 -23.68,-28.83 -58.48,-43.16 -104.82,-43.16 -23.87,0 -44.76,4.38 -62.65,13.33 -17.91,8.94 -32.83,20.88 -44.95,35.8 -12.13,14.71 -21.48,32.02 -28.04,51.51 -6.57,19.69 -10.34,40.17 -11.14,61.66l285.23 0zm726.16 42.77c0,45.94 -4.97,87.12 -14.91,123.71 -9.75,36.4 -24.27,67.43 -43.56,92.89 -19.09,25.46 -42.96,45.15 -71.2,58.87 -28.24,13.73 -60.66,20.69 -97.06,20.69 -15.52,0 -29.84,-1.59 -42.96,-4.58 -13.33,-3.18 -26.06,-7.96 -38.79,-14.71 -12.53,-6.57 -25.06,-14.92 -37.39,-25.07 -12.53,-9.94 -25.66,-21.88 -39.58,-35.4l0 262.74c0,3.18 -0.8,5.77 -2.39,8.15 -1.59,2.39 -3.97,4.37 -7.55,5.97 -3.59,1.39 -8.36,2.58 -14.72,3.38 -6.16,0.79 -14.12,1.19 -23.87,1.19 -9.55,0 -17.31,-0.4 -23.47,-1.19 -6.36,-0.8 -11.34,-1.99 -14.92,-3.38 -3.78,-1.6 -6.36,-3.58 -7.75,-5.97 -1.4,-2.39 -1.99,-4.98 -1.99,-8.15l0 -732.95c0,-3.58 0.59,-6.36 1.78,-8.55 1.2,-1.99 3.59,-3.97 6.96,-5.37 3.59,-1.59 7.96,-2.78 13.53,-3.37 5.37,-0.6 12.14,-0.8 19.89,-0.8 8.15,0 14.92,0.2 20.29,0.8 5.17,0.59 9.55,1.78 13.12,3.18 3.58,1.6 5.97,3.58 7.36,5.57 1.39,2.19 1.99,4.97 1.99,8.55l0 70.22c15.91,-16.31 31.23,-30.43 45.94,-42.57 14.72,-11.93 29.64,-21.88 44.56,-29.83 14.92,-7.96 30.23,-14.13 45.94,-18.1 15.72,-4.18 32.22,-6.16 49.73,-6.16 37.99,0 70.21,7.36 97.06,22.08 26.65,14.91 48.53,35.01 65.44,60.66 16.9,25.66 29.24,55.5 37,89.5 7.75,34.01 11.53,70.01 11.53,108zm-100.24 11.13c0,-26.85 -1.98,-52.9 -6.16,-77.97 -3.97,-25.06 -11.14,-47.34 -20.88,-66.83 -9.95,-19.49 -23.27,-35.01 -39.97,-46.74 -16.71,-11.74 -37.6,-17.51 -62.46,-17.51 -12.53,0 -24.66,1.79 -36.8,5.57 -11.93,3.79 -24.27,9.55 -36.79,17.5 -12.34,7.96 -25.46,18.5 -38.99,31.62 -13.52,13.13 -28.04,29.25 -43.16,48.34l0 208.64c26.46,32.42 51.51,57.09 75.19,74.39 23.86,17.11 48.73,25.66 74.78,25.66 24.07,0 44.75,-5.77 62.05,-17.5 17.31,-11.73 31.23,-27.24 41.97,-46.74 10.75,-19.49 18.5,-41.17 23.68,-65.43 4.97,-24.07 7.55,-48.53 7.55,-73zm672.27 263.94c0,2.19 -0.59,4.38 -1.98,5.97 -1.4,1.79 -3.98,3.38 -7.56,4.38 -3.78,1.19 -8.55,2.19 -14.72,2.78 -5.97,0.6 -13.72,0.8 -23.06,0.8 -10.75,0 -19.69,-0.39 -26.46,-1.19 -6.76,-0.8 -12.34,-1.78 -16.71,-3.18 -4.17,-1.39 -7.36,-3.18 -9.14,-5.17 -1.99,-2.19 -3.38,-4.58 -4.18,-7.36l-55.69 -135.85c-6.96,-17.5 -14.32,-32.42 -22.28,-45.15 -7.96,-12.53 -17.11,-22.88 -27.65,-30.63 -10.34,-7.76 -22.08,-13.33 -35.4,-16.91 -13.13,-3.38 -28.04,-5.17 -45.15,-5.17l-40.58 0 0 236.09c0,1.98 -1,3.78 -2.99,5.77 -1.98,1.98 -4.77,3.58 -8.75,4.57 -3.97,1.2 -8.95,2.19 -15.31,2.99 -6.17,0.8 -13.33,1.19 -21.49,1.19 -8.35,0 -15.51,-0.39 -21.67,-1.19 -6.37,-0.8 -11.34,-1.78 -15.31,-2.99 -3.98,-0.99 -6.76,-2.58 -8.56,-4.57 -1.78,-1.99 -2.58,-3.98 -2.58,-5.77l0 -533.05c0,-1.78 0.8,-3.78 2.58,-5.36 1.79,-1.79 4.58,-3.38 8.56,-4.38 3.97,-1.19 8.94,-2.19 15.31,-2.78 6.16,-0.6 13.32,-0.8 21.67,-0.8 8.15,0 15.31,0.2 21.49,0.8 6.36,0.59 11.34,1.59 15.31,2.78 3.97,1 6.76,2.58 8.75,4.38 1.99,1.59 2.99,3.58 2.99,5.56l0 220.38 40.58 0c14.51,0 28.04,-1.59 40.17,-4.97 12.14,-3.38 23.27,-8.76 33.22,-16.31 10.15,-7.76 19.09,-17.5 26.85,-29.64 7.96,-12.13 15.31,-26.65 21.88,-43.75l48.53 -121.14c0.79,-3.18 2.19,-5.77 3.97,-8.15 1.99,-2.39 4.97,-4.37 8.76,-5.77 3.97,-1.59 9.14,-2.78 15.51,-3.37 6.36,-0.6 14.92,-0.8 25.46,-0.8 9.15,0 16.9,0.2 22.87,0.8 5.98,0.59 10.75,1.59 14.13,2.78 3.18,1 5.36,2.58 6.56,4.38 1.19,1.59 1.79,3.58 1.79,5.36 0,3.58 -0.4,7.37 -1.39,11.14 -1,3.97 -2.39,8.35 -4.38,13.53l-50.12 115.56c-7.76,19.49 -16.11,35.8 -25.26,49.13 -9.15,13.12 -18.3,24.27 -27.65,33.01 -9.15,8.76 -18.7,15.52 -28.44,20.49 -9.55,4.77 -18.89,8.55 -27.85,11.34l0 1.19c13.53,4.58 26.05,10.15 37.59,16.7 11.54,6.76 22.08,14.92 32.03,24.46 9.94,9.75 19.09,21.29 27.65,34.81 8.55,13.33 16.51,28.64 24.06,46.15l57.68 132.86c1.59,2.58 2.58,5.18 3.38,7.56 0.79,2.18 1.39,4.58 1.78,6.56 0.4,2.19 0.8,3.98 1,5.37 0.2,1.39 0.2,2.58 0.2,3.78zm557.11 -155.14c0,27.64 -5.17,52.31 -15.71,73.79 -10.54,21.68 -26.06,39.58 -46.74,54.3 -20.49,14.51 -46.15,25.66 -76.77,33.21 -30.83,7.56 -66.64,11.34 -107.41,11.34 -12.73,0 -25.25,0 -37.19,-0.2 -12.13,-0.2 -23.86,-0.6 -35.01,-1.19 -11.34,-0.6 -22.47,-1.39 -33.61,-2.19 -10.94,-0.59 -22.08,-1.59 -32.82,-2.78 -15.71,-1.99 -27.05,-7.16 -34.4,-15.52 -7.37,-8.35 -11.14,-20.68 -11.14,-36.99l0 -451.51c0,-15.91 3.58,-28.24 10.74,-36.79 7.16,-8.56 18.3,-13.53 33.02,-15.12 10.14,-1.19 20.88,-2.19 32.41,-2.99 11.34,-0.59 23.07,-1.39 35.21,-1.99 12.13,-0.59 24.46,-0.99 37.39,-1.39 12.73,-0.39 25.66,-0.59 38.98,-0.59 37.8,0 70.41,3.18 97.87,9.35 27.64,6.16 50.52,15.31 68.82,27.24 18.29,12.14 31.82,26.85 40.58,44.35 8.75,17.5 13.12,37.39 13.12,59.87 0,29.43 -7.96,54.7 -23.68,75.78 -15.71,20.88 -38.98,35.8 -69.61,44.75 38.39,8.15 67.43,23.87 86.91,47.14 19.3,23.47 29.04,52.7 29.04,88.11zm-115.75 -243.25c0,-12.73 -2.39,-24.07 -6.96,-34.22 -4.77,-9.94 -12.34,-18.5 -23.07,-25.46 -10.74,-6.96 -24.66,-12.13 -41.57,-15.71 -16.9,-3.38 -37.39,-5.18 -61.66,-5.18 -18.29,0 -35.01,0.4 -50.12,1.4 -15.31,0.99 -28.04,2.18 -38.58,3.18l0 162.5 98.05 0c40.18,0 70.81,-7.36 92.09,-22.28 21.29,-14.92 31.83,-36.4 31.83,-64.24zm16.7 244.64c0,-15.51 -2.78,-29.24 -8.15,-40.97 -5.36,-11.94 -14.12,-21.68 -25.85,-29.44 -11.93,-7.75 -27.05,-13.52 -45.55,-17.5 -18.3,-3.78 -40.18,-5.77 -65.43,-5.77l-93.69 0 0 185.77c7.36,1.19 15.12,1.99 23.07,2.58 7.96,0.6 16.11,1.19 24.46,1.79 8.35,0.59 16.51,1 24.86,1.39 8.35,0.39 16.11,0.6 23.07,0.6 25.26,0 46.74,-2.19 64.65,-6.76 17.9,-4.38 32.62,-10.95 44.55,-19.49 11.73,-8.55 20.49,-18.89 25.85,-31.03 5.37,-12.33 8.15,-26.05 8.15,-41.17zm634.88 150.17c0,4.58 -1.6,8.15 -4.58,10.54 -3.18,2.39 -7.37,3.98 -12.93,5.18 -5.37,1.19 -13.33,1.78 -23.87,1.78 -9.95,0 -18.1,-0.59 -24.07,-1.78 -5.97,-1.19 -10.34,-2.79 -13.12,-5.18 -2.78,-2.39 -4.18,-5.77 -4.18,-10.54l0 -52.51c-22.87,24.46 -48.33,43.55 -76.57,57.08 -28.25,13.32 -58.08,20.09 -89.5,20.09 -27.65,0 -52.71,-3.58 -74.99,-10.74 -22.28,-7.16 -41.37,-17.7 -57.08,-31.23 -15.71,-13.52 -28.04,-30.43 -36.8,-50.12 -8.75,-19.89 -13.12,-42.36 -13.12,-67.62 0,-29.64 5.97,-55.3 18.1,-76.97 11.93,-21.88 29.24,-39.98 51.91,-54.3 22.48,-14.32 50.12,-25.26 82.74,-32.42 32.63,-7.16 69.42,-10.74 110.19,-10.74l72.4 0 0 -40.97c0,-20.1 -2.18,-37.99 -6.36,-53.7 -4.38,-15.52 -11.14,-28.45 -20.69,-38.79 -9.55,-10.34 -21.88,-18.09 -37,-23.27 -15.12,-5.36 -33.81,-7.96 -55.89,-7.96 -23.67,0 -44.94,2.79 -63.64,8.56 -18.9,5.77 -35.41,11.93 -49.53,18.89 -14.12,6.96 -26.05,13.12 -35.61,18.89 -9.35,5.77 -16.51,8.56 -21.08,8.56 -3.18,0 -5.97,-0.8 -8.15,-2.39 -2.39,-1.4 -4.37,-3.79 -6.16,-6.96 -1.79,-2.99 -2.99,-6.96 -3.78,-11.74 -0.8,-4.97 -1.19,-10.14 -1.19,-16.1 0,-9.55 0.59,-17.31 1.98,-22.88 1.4,-5.57 4.78,-10.94 9.95,-15.91 5.17,-4.97 14.32,-10.94 27.05,-17.9 12.73,-6.76 27.65,-13.12 44.35,-18.89 16.52,-5.57 34.81,-10.34 54.7,-14.13 19.69,-3.78 39.79,-5.56 59.87,-5.56 37.59,0 69.62,4.17 96.06,12.73 26.46,8.55 47.74,21.28 64.05,37.79 16.31,16.51 28.04,37 35.4,61.46 7.36,24.46 11.14,53.11 11.14,85.73l0 354.03zm-95.48 -240.27l-82.14 0c-26.26,0 -49.13,2.19 -68.62,6.76 -19.3,4.38 -35.41,11.14 -48.34,19.89 -12.73,8.76 -22.08,19.1 -28.24,31.43 -5.97,12.34 -8.95,26.46 -8.95,42.37 0,27.24 8.56,48.93 25.86,65.04 17.3,16.11 41.37,24.27 72.59,24.27 25.07,0 48.53,-6.37 70.01,-19.3 21.49,-12.73 44.16,-32.42 67.82,-58.88l0 -111.58z"/>
  </g>
  <path class="fil0" d="M28764.22 7124.3c-108.26,169.56 -269.53,254.07 -483.83,254.07 -103.83,0 -194.41,-33.69 -272.84,-101.07 -78.43,-67.39 -117.09,-159.62 -117.09,-276.17 0,-115.98 41.98,-213.74 127.03,-292.72 84.51,-78.43 185.58,-118.2 303.22,-118.2 47.5,0 88.37,8.84 123.17,25.96l310.4 -1434.92 490.46 -65.17 -361.21 1699.47c-14.92,67.94 -28.72,119.3 -41.98,155.21 51.92,46.39 122.05,69.59 211.53,69.59 88.92,0 172.32,-44.19 249.65,-132.56 149.12,-168.45 257.38,-439.64 325.31,-814.11 30.38,-170.67 45.29,-326.41 45.29,-467.82 0,-243.57 -44.74,-419.75 -134.21,-527.46 -81.73,-95 -192.2,-142.5 -330.28,-142.5 -267.32,0 -482.17,72.91 -644.56,218.72 -162.37,145.81 -243.57,341.33 -243.57,587.11 0,87.82 13.25,155.21 40.32,202.7 4.42,8.28 6.63,16.01 6.63,22.65 -111.02,0 -198.29,-23.2 -260.69,-69.6 -62.41,-46.39 -93.89,-125.93 -93.89,-238.04l0 -8.29c0,-146.36 56.89,-286.65 170.11,-420.31 174.53,-208.23 420.86,-346.3 737.89,-414.24 104.39,-21.54 224.8,-32.58 360.67,-32.58 135.87,0 260.14,25.95 372.26,77.88 317.03,146.36 475.55,439.08 475.55,876.52 0,192.21 -25.41,382.21 -75.67,569.99 -104.94,393.8 -268.98,682.12 -492.11,865.48 -112.12,92.79 -228.66,139.18 -349.62,139.18 -167.35,0 -316.48,-69.6 -447.93,-208.78zm-347.96 -381.64c-38.11,-21.55 -71.25,-32.59 -100.52,-32.59 -61.31,0 -117.65,25.95 -168.46,78.43 -50.26,52.47 -75.67,114.32 -75.67,185.58 0,33.14 12.71,60.2 38.66,80.09 25.96,19.88 56.89,29.82 92.24,29.82 35.35,0 72.36,-18.22 111.02,-55.23 38.11,-36.45 66.83,-104.38 86.16,-203.81l16.57 -82.29zm4481 -828.48c0,-90.58 -25.4,-135.87 -76.21,-135.87 -83.95,0 -165.7,107.15 -245.78,322 -74.57,213.2 -111.56,418.66 -111.56,616.38 0,120.96 22.64,208.78 67.93,264.56 45.29,55.23 105.49,83.4 181.16,83.4 75.67,0 160.73,-29.83 255.72,-88.92 95,-59.65 180.61,-153 257.38,-280.02l111.56 0c-76.76,169 -187.78,313.71 -333.59,433.56 -145.27,119.86 -296.6,179.5 -452.91,179.5 -156.3,0 -277.26,-47.5 -363.42,-143.05 -85.61,-95.55 -128.14,-223.13 -128.14,-382.75 0,-109.92 8.29,-206.57 25.41,-289.42l-188.89 0 -165.14 795.89 -443.51 0 168.46 -795.89 -186.14 0c-72.35,364.53 -220.36,612.52 -443.51,743.97 -80.63,47.5 -166.24,71.24 -255.71,71.24 -153,0 -260.69,-33.13 -323.66,-99.97 -62.41,-67.38 -93.89,-150.78 -93.89,-251.31 0,-135.87 40.87,-222.58 121.51,-260.13 23.75,-12.16 54.12,-17.68 91.68,-17.68 37.01,0 71.25,15.47 102.73,46.39 -29.27,80.09 -43.63,154.65 -43.63,223.69 0,69.04 12.71,117.09 39.22,143.61 26.52,27.06 58,40.86 93.89,40.86 36.45,0 70.7,-22.64 102.74,-67.93 100.52,-140.29 171.77,-326.41 213.75,-558.39 20.43,-108.8 30.92,-213.2 30.92,-312.06 0,-231.97 -67.38,-347.96 -202.69,-347.96 -63.52,0 -114.33,21.55 -151.89,64.63 -37.56,43.08 -72.35,104.38 -103.28,184.47l-171.77 0c93.89,-329.18 277.26,-493.77 550.1,-493.77 151.89,0 270.64,47.5 356.25,142.5 85.05,95 127.58,222.58 127.58,383.31 0,55.23 -3.31,111.01 -9.94,166.8l199.39 0 139.18 -663.34 443.51 0 -139.18 663.34 185.58 0c92.79,-317.04 238.04,-528.57 435.78,-634.06 71.79,-39.22 147.46,-58.54 226.45,-58.54 134.76,0 228.1,29.27 280.57,87.27 52.47,58.54 78.43,129.79 78.43,213.75 0,83.95 -16.57,145.81 -50.26,185.58 -33.14,39.22 -71.8,59.09 -115.44,59.09 -43.63,0 -83.95,-13.25 -120.4,-39.22 22.64,-72.35 33.68,-137.53 33.68,-195.52zm1772.45 781.53c-247.98,408.71 -551.76,613.06 -911.31,613.06 -157.41,0 -282.79,-40.86 -376.68,-122.05 -93.89,-81.74 -140.84,-215.96 -140.84,-403.74 0,-252.41 64.06,-496.54 192.75,-732.93 97.77,-180.05 231.43,-308.74 400.98,-384.97 87.27,-41.42 177.85,-61.86 271.75,-61.86 153.54,0 257.37,28.71 312.61,86.71 54.68,57.44 82.3,134.76 82.3,230.31 0,188.89 -76.22,349.62 -228.11,481.62 -151.88,132 -330.28,204.91 -534.09,217.61 -5.52,62.41 -7.73,106.59 -7.73,132.56 0,113.22 19.89,188.34 59.65,224.24 39.77,36.45 96.11,54.12 168.46,54.12 127.03,0 234.19,-28.17 320.9,-85.06 86.71,-56.33 178.95,-139.73 276.16,-249.64l113.22 0zm-424.17 -798.11c0,-79.53 -27.62,-119.29 -82.3,-119.29 -81.19,2.21 -159.07,73.45 -234.73,214.3 -75.67,140.84 -129.79,296.59 -163.49,468.36 127.59,-8.84 239.15,-67.93 335.8,-177.85 96.66,-109.91 144.71,-238.6 144.71,-385.52zm767.78 1292.98l-171.76 807.48 -499.85 119.86 553.42 -2608.59 477.2 0 -53.03 249.09c109.92,-94.44 238.61,-141.94 386.62,-141.94 191.1,0 315.37,91.68 373.92,275.05 20.43,66.83 30.37,143.61 30.37,230.32 0,86.71 -4.97,173.98 -15.46,260.68 -9.94,86.71 -27.62,173.43 -52.47,260.69 -24.86,86.71 -57.45,170.11 -97.77,249.65 -40.31,80.09 -91.13,150.78 -151.33,212.64 -60.2,62.41 -132,111.56 -214.3,148.57 -82.85,36.45 -185.58,54.68 -309.3,54.68 -123.17,0 -208.78,-39.21 -256.28,-118.19zm644 -1061.55c0,-183.37 -55.78,-275.05 -166.8,-275.05 -37.56,0 -77.33,13.8 -118.74,40.86 -41.42,26.52 -77.88,67.94 -109.36,122.62l-195.52 927.34c19.33,50.81 66.27,76.22 141.39,76.22 75.12,0 141.94,-31.48 201.59,-93.89 115.44,-123.17 189.45,-298.81 223.13,-527.46 16.02,-101.62 24.31,-191.65 24.31,-270.63zm2056.89 566.68c-247.98,408.71 -551.76,613.06 -911.31,613.06 -157.41,0 -282.79,-40.86 -376.68,-122.05 -93.89,-81.74 -140.84,-215.96 -140.84,-403.74 0,-252.41 64.06,-496.54 192.75,-732.93 97.77,-180.05 231.43,-308.74 400.98,-384.97 87.27,-41.42 177.85,-61.86 271.75,-61.86 153.54,0 257.37,28.71 312.61,86.71 54.68,57.44 82.3,134.76 82.3,230.31 0,188.89 -76.22,349.62 -228.11,481.62 -151.88,132 -330.28,204.91 -534.09,217.61 -5.52,62.41 -7.73,106.59 -7.73,132.56 0,113.22 19.89,188.34 59.65,224.24 39.77,36.45 96.11,54.12 168.46,54.12 127.03,0 234.19,-28.17 320.9,-85.06 86.71,-56.33 178.95,-139.73 276.16,-249.64l113.22 0zm-424.17 -798.11c0,-79.53 -27.62,-119.29 -82.3,-119.29 -81.19,2.21 -159.07,73.45 -234.73,214.3 -75.67,140.84 -129.79,296.59 -163.49,468.36 127.59,-8.84 239.15,-67.93 335.8,-177.85 96.66,-109.91 144.71,-238.6 144.71,-385.52zm2386.07 798.11c-139.18,408.71 -344.65,613.06 -616.94,613.06 -125.93,0 -222.58,-33.68 -289.97,-101.07 -67.93,-67.38 -101.62,-146.36 -101.62,-236.39 0,-90.03 24.31,-244.68 72.91,-463.4l145.81 -656.7c-111.01,0 -195.52,46.39 -253.52,138.64 -57.44,92.79 -106.04,231.97 -146.36,417.55 -39.77,185.58 -72.91,329.73 -98.31,431.36 -25.96,102.18 -57.99,187.23 -95.55,256.28 -76.77,142.5 -199.39,213.74 -367.3,213.74 -120.95,0 -212.08,-36.44 -272.84,-109.91 -60.75,-73.46 -91.13,-166.25 -91.13,-278.92 0,-113.23 39.77,-190 119.3,-230.88 24.85,-12.7 58.54,-19.33 100.52,-19.33 41.98,0 78.98,16.01 111.02,47.5 31.47,32.04 47.5,74.57 47.5,128.14 0,53.02 -13.26,92.79 -40.32,118.2 -27.07,25.4 -58,35.89 -92.24,31.47 1.1,22.65 9.94,45.84 26.51,69.6 16.58,23.74 51.36,35.35 103.84,35.35 51.92,0 95,-17.68 128.69,-53.58 59.09,-61.3 106.59,-177.29 141.94,-347.4l48.6 -244.68c95,-461.73 238.6,-724.63 430.81,-789.26 62.41,-21.54 130.9,-32.59 205.45,-32.59l488.25 0 -234.18 1077.57c-14.36,63.51 -21.54,109.91 -21.54,139.18 0,92.79 44.74,139.18 133.11,139.18 66.83,0 119.85,-25.4 160.17,-76.77 39.77,-51.36 78.98,-123.16 118.2,-215.95l139.18 0zm461.81 606.44c-186.69,0 -326.98,-41.42 -420.87,-124.27 -93.89,-83.39 -140.84,-207.66 -140.84,-372.81 0,-165.7 20.98,-312.61 62.96,-441.3 169.56,-507.02 451.25,-760.54 845.04,-760.54 283.34,0 425.29,173.43 425.29,519.73 0,346.29 -75.12,629.09 -224.79,849.46 -71.25,103.28 -155.75,184.47 -254.07,242.46 -98.31,58.55 -196.07,87.27 -292.72,87.27zm101.62 -297.69c58.54,0 112.68,-31.48 163.49,-95.56 100.52,-131.45 169,-317.58 205.45,-557.83 19.34,-114.33 29.28,-214.3 29.28,-299.36 0,-85.61 -8.28,-148.02 -24.86,-187.78 -17.12,-39.77 -53.02,-60.21 -107.7,-60.21 -104.94,0 -203.26,112.12 -296.04,335.81 -92.79,224.24 -139.18,423.08 -139.18,596.5 0,106.6 9.39,174.53 28.72,203.26 19.33,28.17 40.32,46.39 61.86,54.12 21.55,7.73 48.05,11.05 78.98,11.05z"/>
  <path class="fil0" d="M29911.37 9607.41c0,-151.34 -66.27,-226.45 -199.38,-226.45 -41.98,0 -81.74,3.31 -119.3,11.04l-254.07 1199.08 -477.74 0 255.71 -1205.7c-13.8,-2.76 -27.06,-4.42 -40.32,-4.42 -20.43,0 -40.32,0 -59.65,0 -83.4,0 -152.99,28.16 -208.78,85.61 -56.33,56.89 -93.89,121.5 -113.22,192.2 -28.17,102.73 -53.02,225.9 -74.57,368.94l-24.3 165.14c-27.07,175.08 -67.39,294.39 -120.41,358.45 -53.57,64.07 -136.97,96.65 -250.2,96.65 -113.22,0 -224.79,-19.33 -334.7,-56.89 148.57,-78.98 245.22,-269.53 289.41,-572.75 22.65,-157.41 45.84,-271.19 69.6,-341.33 48.6,-142.5 113.22,-249.64 194.41,-322 94.44,-95 243.58,-142.5 446.27,-142.5l9.94 0c4.43,-70.15 6.64,-145.82 6.64,-226.45 0,-81.19 -4.98,-162.94 -14.92,-246.34 -14.91,-134.76 -64.06,-238.6 -146.91,-312.06 -46.39,88.37 -114.89,132.56 -206.02,132.56 -90.58,0 -150.23,-40.32 -179.5,-121.51 -8.28,-24.3 -12.7,-55.78 -12.7,-93.34 0,-75.67 30.93,-134.76 92.79,-176.74 62.41,-41.98 134.76,-62.96 218.72,-62.96 83.4,0 152.43,19.88 206.02,59.09 54.12,39.22 97.76,90.58 131.45,154.65 74,141.39 111.56,336.35 111.56,585.45 0,106.04 -8.28,212.64 -24.3,320.34 22.64,0 44.74,2.21 66.27,6.63l218.17 -1016.26 497.08 -103.28 -238.04 1119.54c25.95,-4.42 51.36,-6.63 76.22,-6.63 50.81,-235.84 129.24,-453.45 236.39,-651.73 106.59,-198.83 223.13,-331.94 349.06,-399.88 86.71,-45.29 157.96,-67.93 213.75,-67.93 92.79,0 162.93,19.33 210.42,57.44 47.51,38.11 71.25,86.16 71.25,143.05 0,93.89 -21.54,159.62 -64.06,197.73 -42.53,37.56 -92.8,56.33 -151.34,56.33 -95,0 -160.17,-44.19 -195.52,-132.56 -149.13,86.16 -275.05,264.01 -378.89,532.43l-95.55 252.41 46.95 0c218.17,0 348.51,71.24 391.59,213.75 13.25,43.08 19.88,94.44 19.88,155.2 0,80.64 -27.06,218.72 -81.18,414.24l-56.9 202.14c-17.12,64.63 -25.4,123.17 -25.4,174.53 0,51.92 11.6,97.76 34.79,136.97 23.2,39.22 54.69,66.83 94.45,81.74 -138.09,37.56 -247.44,56.89 -328.63,56.89 -171.22,0 -257.38,-74 -257.38,-222.03 0,-72.35 20.44,-176.74 60.21,-313.16 39.77,-136.42 68.48,-240.25 86.71,-312.06 17.67,-71.8 27.06,-136.42 28.16,-193.31zm2517.45 389.94c-140.29,408.71 -361.76,613.06 -664.99,613.06 -197.17,0 -306.54,-104.38 -328.62,-313.71 -129.24,209.33 -292.73,313.71 -489.91,313.71 -99.41,0 -183.37,-31.47 -252.4,-93.89 -67.94,-62.41 -102.19,-163.48 -102.19,-302.67 0,-62.41 8.84,-134.76 25.96,-216.5l224.79 -1063.22 477.75 0 -238.04 1126.18c-6.64,34.8 -9.95,65.72 -9.95,93.89 0,90.58 33.14,135.87 98.87,135.87 116.53,0 204.9,-97.76 265.11,-292.72l225.34 -1063.22 477.19 0 -238.04 1126.18c-9.39,37.56 -14.36,76.77 -14.36,116.54 0,75.66 45.29,113.22 135.87,113.22 124.27,0 213.75,-97.76 268.42,-292.72l139.18 0zm1909.35 613.06c-282.78,0 -424.17,-124.26 -424.17,-373.91 0,-90.58 24.85,-234.73 74.56,-433.57 49.72,-198.28 74.57,-335.25 74.57,-410.92 0,-113.23 -39.77,-170.11 -119.86,-170.11 -79.53,0 -150.78,63.51 -213.74,189.44 -18.23,35.9 -33.14,74.57 -45.29,116.54l-224.8 1063.21 -477.19 0 242.46 -1143.85c6.63,-25.95 9.94,-53.57 9.94,-82.85 0,-97.21 -32.58,-145.26 -97.76,-145.26 -65.17,0 -120.96,30.38 -166.8,91.13 -45.84,60.75 -80.63,133.66 -104.38,217.61l-224.79 1063.21 -477.2 0 350.72 -1656.95 477.75 0 -35.9 171.22c109.92,-124.82 244.68,-187.23 404.85,-187.23 194.97,0 308.19,95 339.68,284.45 121.51,-187.79 275.6,-281.13 461.18,-281.13 104.39,0 191.66,28.72 261.8,87.27 70.15,57.99 105.5,143.6 105.5,255.72 0,112.12 -18.23,241.36 -55.24,388.28l-77.32 323.65c-17.68,70.15 -25.96,127.03 -25.96,171.22 0,95 40.32,142.5 120.96,142.5 74.57,0 132,-23.74 171.77,-71.24 39.77,-47.51 78.98,-121.51 118.19,-221.48l139.19 0c-82.3,243.57 -185.59,414.79 -310.95,512.54 -86.16,67.39 -176.74,100.52 -271.75,100.52zm2492.04 0c-282.78,0 -424.17,-124.26 -424.17,-373.91 0,-90.58 24.85,-234.73 74.56,-433.57 49.72,-198.28 74.57,-335.25 74.57,-410.92 0,-113.23 -39.77,-170.11 -119.86,-170.11 -79.53,0 -150.78,63.51 -213.74,189.44 -18.23,35.9 -33.14,74.57 -45.29,116.54l-224.8 1063.21 -477.19 0 242.46 -1143.85c6.63,-25.95 9.94,-53.57 9.94,-82.85 0,-97.21 -32.58,-145.26 -97.76,-145.26 -65.17,0 -120.96,30.38 -166.8,91.13 -45.84,60.75 -80.63,133.66 -104.38,217.61l-224.79 1063.21 -477.2 0 350.72 -1656.95 477.75 0 -35.9 171.22c109.92,-124.82 244.68,-187.23 404.85,-187.23 194.97,0 308.19,95 339.68,284.45 121.51,-187.79 275.6,-281.13 461.18,-281.13 104.39,0 191.66,28.72 261.8,87.27 70.15,57.99 105.5,143.6 105.5,255.72 0,112.12 -18.23,241.36 -55.24,388.28l-77.32 323.65c-17.68,70.15 -25.96,127.03 -25.96,171.22 0,95 40.32,142.5 120.96,142.5 74.57,0 132,-23.74 171.77,-71.24 39.77,-47.51 78.98,-121.51 118.19,-221.48l139.19 0c-82.3,243.57 -185.59,414.79 -310.95,512.54 -86.16,67.39 -176.74,100.52 -271.75,100.52zm974.28 -718.56c-210.43,-48.6 -315.37,-176.74 -315.37,-384.97 0,-267.32 152.43,-443.51 457.87,-527.45 111.02,-30.38 249.1,-45.3 414.24,-45.3l503.16 0c-128.69,597.61 -203.26,942.26 -224.24,1034.49 -20.99,92.24 -31.48,152.99 -31.48,182.26 0,92.79 44.19,139.18 132.56,139.18 41.98,0 80.09,-10.49 113.23,-30.93 -23.75,209.33 -127.59,326.42 -312.06,351.27 -127.59,0 -224.24,-33.68 -290.52,-101.07 -66.27,-67.38 -99.41,-144.7 -99.41,-231.97 0,-87.82 19.88,-217.06 59.65,-388.83 -60.2,13.25 -122.06,19.89 -186.13,19.89 -61.3,256.27 -115.44,422.52 -161.83,497.63 -46.39,74.56 -95.55,127.59 -148.57,158.51 -53.02,30.38 -114.33,45.84 -184.47,45.84 -127.59,0 -223.13,-35.89 -287.21,-107.7 -64.06,-71.8 -96.1,-164.59 -96.1,-278.92 0,-114.33 39.77,-192.21 119.3,-233.08 24.85,-12.7 58.54,-19.33 100.52,-19.33 41.98,0 78.98,16.01 111.02,47.5 31.47,32.04 47.5,74.57 47.5,128.14 0,53.02 -13.26,92.79 -40.32,118.2 -27.07,25.4 -58,35.89 -92.24,31.47 6.63,70.15 49.15,104.95 127.59,104.95 78.97,0 136.97,-46.95 173.98,-140.84 37.55,-93.9 74,-216.51 109.35,-368.95zm576.06 -778.21l-79.54 0c-131.45,0 -230.31,35.89 -296.03,107.15 -65.73,70.7 -98.32,159.07 -98.32,264.56 0,104.94 23.2,175.64 69.6,212.64 45.84,36.45 102.73,54.68 169.56,54.68l51.92 0c16.01,0 30.93,-2.21 43.63,-6.07l139.18 -632.95z"/>
  <g id="_2171671077680">
   <path class="fil0" d="M23419.54 4157.29c1115.99,1390.98 2201.22,2743.64 2201.22,4079.25 0,582.92 -115.34,1139.66 -324.96,1649.95 -124.78,-31.93 -250,-74.32 -375.52,-123.14 197.31,-471.3 306.05,-986.73 306.05,-1526.81 0,-1198.57 -1041.93,-2497.25 -2113.4,-3832.74 -815.34,-1016.26 -1636.87,-2102.73 -2072.47,-3166.44 -460.62,1036.93 -1270.18,2094.42 -2052.61,3081.15 -1083.22,1366.11 -2133.26,2690.36 -2133.26,3918.02 0,540.08 108.74,1055.52 306.05,1526.81 -125.53,48.82 -250.74,91.21 -375.52,123.14 -209.62,-510.29 -324.96,-1067.03 -324.96,-1649.95 0,-1363.84 1092.5,-2741.63 2219.54,-4163 1132.49,-1428.21 1855.1,-2309.06 2360.75,-4073.54 536.3,1872.5 1160.42,2638.35 2379.07,4157.29zm845.32 7241.32c-827.97,798.13 -1967.31,1291.28 -3224.39,1291.28 -1257.08,0 -2396.42,-493.15 -3224.39,-1291.28 112.57,-15.12 226.92,-31.41 342.11,-47.8 55.78,-7.95 111.77,-15.91 167.81,-23.79 730.61,603.93 1678.34,968.46 2714.47,968.46 1036.13,0 1983.86,-364.53 2714.47,-968.46 56.04,7.88 112.03,15.85 167.81,23.79 115.19,16.4 229.54,32.69 342.11,47.8z"/>
   <polygon class="fil1" points="20772.06,3532.03 21308.87,3532.03 21308.87,5154.61 22794.53,5154.61 22794.53,5691.46 21308.87,5691.46 21308.87,9200.42 20772.06,9200.42 20772.06,5691.46 19286.42,5691.46 19286.42,5154.61 20772.06,5154.61 "/>
   <path class="fil1" d="M21040.47 11571.56l-123.78 0.04c-117.78,0.05 -277.61,23.14 -377.48,-39.14 -130.48,-81.36 -115.23,-221.04 -157.49,-267.53 -860.88,-571.56 -3187.43,333.89 -4013,-23.38 2105.78,-118.93 2834.56,-1035.06 4209.2,-206.06 104.44,59.43 323.13,133.96 462.55,150.29 139.42,-16.33 358.11,-90.86 462.55,-150.29 1374.64,-829.01 2103.43,87.13 4209.2,206.06 -825.57,357.27 -3152.12,-548.18 -4013,23.38 -42.26,46.48 -27.02,186.17 -157.49,267.53 -99.87,62.28 -259.7,39.19 -377.48,39.14l-123.78 -0.04z"/>
   <path class="fil1" d="M21040.47 11018.28c-148.3,-64.08 -789.54,-346.11 -844.22,-368.44 -1335.34,-708.44 -2468.37,806.92 -4231.98,28.92 1995.37,291.63 2752.28,-1389.49 4128.35,-460.55 110.7,55.18 801.6,563.23 947.86,655.79 146.26,-92.56 837.15,-600.61 947.86,-655.79 1376.06,-928.95 2132.98,752.17 4128.35,460.55 -1763.61,778 -2896.64,-737.36 -4231.98,-28.92 -54.69,22.33 -695.92,304.36 -844.22,368.44z"/>
   <path class="fil1" d="M21040.47 10663.44c87.43,-69.18 351.84,-335.3 410.84,-398.09 1875.1,-1988.53 3393.32,1518.15 5164.55,-445.25 -1846.29,1299.73 -3713.11,-2529.42 -5575.39,646.23 -1862.28,-3175.65 -3729.09,653.5 -5575.39,-646.23 1771.23,1963.41 3289.45,-1543.28 5164.55,445.25 59.01,62.79 323.41,328.91 410.84,398.09z"/>
  </g>
 </g>
</svg>
